<svg width="27" height="27" viewBox="0 0 27 27" fill="none" xmlns="http://www.w3.org/2000/svg">
<path d="M16.875 16.2L23.0432 16.2C23.1767 16.2 23.3073 16.2397 23.4183 16.3139C23.5293 16.3882 23.6158 16.4937 23.6668 16.6172C23.7178 16.7406 23.7311 16.8764 23.7049 17.0074C23.6787 17.1383 23.6143 17.2586 23.5197 17.3529L17.3529 23.5197C17.2586 23.6143 17.1383 23.6787 17.0074 23.7049C16.8764 23.7311 16.7406 23.7178 16.6172 23.6668C16.4937 23.6158 16.3882 23.5293 16.3139 23.4183C16.2397 23.3073 16.2 23.1767 16.2 23.0432L16.2 16.875C16.2 16.696 16.2711 16.5243 16.3977 16.3977C16.5243 16.2711 16.696 16.2 16.875 16.2ZM21.4137 17.55L17.55 17.55L17.55 21.4137L21.4137 17.55Z" fill="#202020"/>
<path d="M12.7102 6.07511L23.0431 6.07511C23.2222 6.07511 23.3939 6.14623 23.5204 6.27281C23.647 6.3994 23.7181 6.57109 23.7181 6.75011L23.7181 16.8751C23.7181 17.0541 23.647 17.2258 23.5204 17.3524C23.3939 17.479 23.2222 17.5501 23.0431 17.5501C22.8641 17.5501 22.6924 17.479 22.5658 17.3524C22.4393 17.2258 22.3681 17.0541 22.3681 16.8751L22.3681 7.42511L12.7102 7.42511C12.2038 7.42582 11.7184 7.62731 11.3603 7.9854C11.0022 8.34348 10.8007 8.82895 10.8 9.33536L10.8 22.3683L16.875 22.3683C17.054 22.3683 17.2257 22.4394 17.3523 22.566C17.4789 22.6926 17.55 22.8642 17.55 23.0433C17.55 23.2223 17.4789 23.394 17.3523 23.5206C17.2257 23.6471 17.054 23.7183 16.875 23.7183L10.125 23.7183C9.94597 23.7183 9.77428 23.6471 9.64769 23.5206C9.5211 23.394 9.44999 23.2223 9.44999 23.0433L9.44999 9.33536C9.4507 8.47091 9.79442 7.64207 10.4057 7.0308C11.0169 6.41955 11.8458 6.07583 12.7102 6.07511Z" fill="#202020"/>
<path d="M6.54215 3.28188L16.8751 3.28188C17.0541 3.28188 17.2258 3.35299 17.3523 3.47958C17.4789 3.60617 17.5501 3.77786 17.5501 3.95688L17.5501 6.75003C17.5501 6.92905 17.4789 7.10074 17.3523 7.22733C17.2258 7.35392 17.0541 7.42503 16.875 7.42503C16.696 7.42503 16.5243 7.35392 16.3978 7.22733C16.2712 7.10074 16.2001 6.92905 16.2001 6.75003L16.2001 4.63188L6.54215 4.63188C6.03574 4.63259 5.55027 4.83408 5.19219 5.19217C4.8341 5.55025 4.63261 6.03572 4.6319 6.54213L4.6319 19.6007L10.125 19.6007C10.3041 19.6007 10.4758 19.6718 10.6023 19.7984C10.7289 19.925 10.8 20.0967 10.8 20.2757C10.8 20.4547 10.7289 20.6264 10.6023 20.753C10.4758 20.8796 10.3041 20.9507 10.125 20.9507L3.9569 20.9507C3.77788 20.9507 3.60619 20.8796 3.4796 20.753C3.35301 20.6264 3.2819 20.4547 3.2819 20.2757L3.2819 6.54213C3.28261 5.67768 3.62633 4.84884 4.23759 4.23757C4.84886 3.62631 5.6777 3.28259 6.54215 3.28188Z" fill="#202020"/>
<path d="M13.5 12.825L20.25 12.825C20.4291 12.825 20.6008 12.8962 20.7273 13.0227C20.8539 13.1493 20.925 13.321 20.925 13.5C20.925 13.6791 20.8539 13.8508 20.7273 13.9773C20.6008 14.1039 20.4291 14.175 20.25 14.175L13.5 14.175C13.321 14.175 13.1493 14.1039 13.0227 13.9773C12.8962 13.8508 12.825 13.6791 12.825 13.5C12.825 13.321 12.8962 13.1493 13.0227 13.0227C13.1493 12.8962 13.321 12.825 13.5 12.825Z" fill="#202020"/>
<path d="M13.5 9.46225L20.25 9.46226C20.4291 9.46226 20.6008 9.53337 20.7273 9.65996C20.8539 9.78655 20.925 9.95823 20.925 10.1373C20.925 10.3163 20.8539 10.488 20.7273 10.6146C20.6008 10.7411 20.4291 10.8123 20.25 10.8123L13.5 10.8123C13.321 10.8123 13.1493 10.7411 13.0227 10.6146C12.8962 10.488 12.825 10.3163 12.825 10.1373C12.825 9.95823 12.8962 9.78654 13.0227 9.65996C13.1493 9.53337 13.321 9.46225 13.5 9.46225Z" fill="#202020"/>
<path d="M6.75005 9.46226L10.125 9.46226C10.3041 9.46226 10.4758 9.53337 10.6023 9.65996C10.7289 9.78655 10.8 9.95823 10.8 10.1373C10.8 10.3163 10.7289 10.488 10.6023 10.6146C10.4758 10.7411 10.3041 10.8123 10.125 10.8123L6.75005 10.8123C6.57103 10.8123 6.39934 10.7411 6.27275 10.6146C6.14616 10.488 6.07505 10.3163 6.07505 10.1373C6.07505 9.95823 6.14616 9.78654 6.27275 9.65996C6.39934 9.53337 6.57103 9.46226 6.75005 9.46226Z" fill="#202020"/>
<path d="M6.75005 12.825L10.125 12.825C10.3041 12.825 10.4758 12.8962 10.6023 13.0227C10.7289 13.1493 10.8 13.321 10.8 13.5C10.8 13.6791 10.7289 13.8508 10.6023 13.9773C10.4758 14.1039 10.3041 14.175 10.125 14.175L6.75005 14.175C6.57103 14.175 6.39934 14.1039 6.27275 13.9773C6.14616 13.8508 6.07505 13.6791 6.07505 13.5C6.07505 13.321 6.14616 13.1493 6.27275 13.0227C6.39934 12.8962 6.57103 12.825 6.75005 12.825Z" fill="#202020"/>
</svg>
