<svg width="24" height="27" viewBox="0 0 24 27" fill="none" xmlns="http://www.w3.org/2000/svg">
<g clip-path="url(#clip0_375_611)">
<path d="M0.164062 13.2064C0.164062 10.9575 0.164062 8.70867 0.164062 6.45981C0.172021 6.42911 0.179979 6.40225 0.183959 6.37154C0.315274 5.05523 1.35783 3.94232 2.71873 3.69287C3.82098 3.49332 4.88344 3.17863 5.91008 2.75265C7.03621 2.28446 8.09071 1.70498 9.12133 1.06793C10.0485 0.496119 11.0751 0.277373 12.1694 0.384827C12.9533 0.46158 13.6656 0.734052 14.3341 1.137C14.9509 1.50926 15.5757 1.86999 16.2203 2.20003C17.5852 2.89464 19.0137 3.40889 20.5378 3.67752C22.0777 3.94999 23.176 5.22793 23.1641 6.74763C23.1481 8.77775 23.1641 10.8079 23.1561 12.838C23.1561 13.2716 23.1243 13.7053 23.0686 14.1351C22.9094 15.39 22.5154 16.572 21.9305 17.7041C21.254 19.0127 20.3667 20.1794 19.3201 21.2347C17.3026 23.2725 14.943 24.8421 12.3246 26.074C12.1137 26.1738 11.8949 26.2659 11.68 26.358C11.6641 26.358 11.6521 26.358 11.6362 26.358C11.6084 26.3426 11.5845 26.3273 11.5526 26.3158C10.8523 26.0279 10.1758 25.6941 9.51527 25.3295C7.41821 24.1705 5.49226 22.7928 3.84486 21.0774C2.77444 19.9606 1.87116 18.7364 1.2106 17.351C0.64555 16.169 0.295377 14.9295 0.191917 13.6285C0.191917 13.4865 0.176 13.3445 0.164062 13.2064ZM21.0073 9.93287C21.0073 8.8545 21.0073 7.77996 21.0073 6.70158C21.0073 6.17583 20.6532 5.7652 20.116 5.67309C19.1808 5.51191 18.2696 5.25863 17.3822 4.93627C15.8741 4.38749 14.4654 3.65833 13.1125 2.82173C12.1575 2.23073 11.1826 2.24224 10.2156 2.81789C9.94901 2.97523 9.68638 3.14409 9.41579 3.30143C7.48984 4.40667 5.46839 5.27398 3.24797 5.66158C2.76251 5.74601 2.30489 6.13361 2.31285 6.76298C2.32877 8.75472 2.32081 10.7503 2.31683 12.742C2.31285 14.0392 2.59936 15.271 3.15247 16.4492C3.73742 17.7041 4.55714 18.8017 5.53205 19.7956C7.28292 21.584 9.34417 22.9655 11.6084 24.0861C11.6402 24.1014 11.6959 24.1014 11.7317 24.0861C13.7372 23.0998 15.5876 21.891 17.2151 20.3828C18.2656 19.408 19.1808 18.3335 19.8693 17.0862C20.6293 15.7124 21.0352 14.2502 21.0193 12.6845C20.9994 11.7634 21.0073 10.8462 21.0073 9.93287Z" fill="#6FB635"/>
<path d="M10.6295 17.7921C8.93431 16.2648 7.24711 14.7451 5.54797 13.2177C6.0414 12.7265 6.53085 12.2429 7.02825 11.744C8.18621 12.7879 9.34417 13.8279 10.5061 14.8755C12.5952 12.6766 14.6803 10.4814 16.7694 8.28247C17.3066 8.73915 17.8319 9.18432 18.3691 9.64099C15.7905 12.358 13.212 15.0751 10.6295 17.7921Z" fill="#6FB635"/>
</g>
<defs>
<clipPath id="clip0_375_611">
<rect width="23" height="26" fill="white" transform="translate(0.164062 0.35791)"/>
</clipPath>
</defs>
</svg>
