<svg width="26" height="26" viewBox="0 0 26 26" fill="none" xmlns="http://www.w3.org/2000/svg">
<path fill-rule="evenodd" clip-rule="evenodd" d="M22.4792 7.58333C22.4792 4.74175 20.175 2.4375 17.3334 2.4375C14.6868 2.4375 11.3133 2.4375 8.66671 2.4375C5.82512 2.4375 3.52087 4.74175 3.52087 7.58333C3.52087 10.8084 3.52087 15.1916 3.52087 18.4167C3.52087 21.2583 5.82512 23.5625 8.66671 23.5625C11.3133 23.5625 14.6868 23.5625 17.3334 23.5625C20.175 23.5625 22.4792 21.2583 22.4792 18.4167V7.58333ZM20.8542 7.58333V18.4167C20.8542 20.3612 19.278 21.9375 17.3334 21.9375C14.6868 21.9375 11.3133 21.9375 8.66671 21.9375C6.72212 21.9375 5.14587 20.3612 5.14587 18.4167C5.14587 15.1916 5.14587 10.8084 5.14587 7.58333C5.14587 5.63875 6.72212 4.0625 8.66671 4.0625C11.3133 4.0625 14.6868 4.0625 17.3334 4.0625C19.278 4.0625 20.8542 5.63875 20.8542 7.58333Z" fill="black"/>
<path fill-rule="evenodd" clip-rule="evenodd" d="M9.74463 10.0208H16.2446C16.6931 10.0208 17.0571 9.65675 17.0571 9.20825C17.0571 8.75975 16.6931 8.39575 16.2446 8.39575H9.74463C9.29613 8.39575 8.93213 8.75975 8.93213 9.20825C8.93213 9.65675 9.29613 10.0208 9.74463 10.0208Z" fill="black"/>
<path fill-rule="evenodd" clip-rule="evenodd" d="M9.75 13.8125H16.25C16.6985 13.8125 17.0625 13.4485 17.0625 13C17.0625 12.5515 16.6985 12.1875 16.25 12.1875H9.75C9.3015 12.1875 8.9375 12.5515 8.9375 13C8.9375 13.4485 9.3015 13.8125 9.75 13.8125Z" fill="black"/>
<path fill-rule="evenodd" clip-rule="evenodd" d="M9.75 17.6042H13C13.4485 17.6042 13.8125 17.2402 13.8125 16.7917C13.8125 16.3432 13.4485 15.9792 13 15.9792H9.75C9.3015 15.9792 8.9375 16.3432 8.9375 16.7917C8.9375 17.2402 9.3015 17.6042 9.75 17.6042Z" fill="black"/>
</svg>
