<svg width="25" height="25" viewBox="0 0 25 25" fill="none" xmlns="http://www.w3.org/2000/svg">
<path d="M12.4764 2.35791C6.95644 2.35791 2.47644 6.83791 2.47644 12.3579C2.47644 17.8779 6.95644 22.3579 12.4764 22.3579C17.9964 22.3579 22.4764 17.8779 22.4764 12.3579C22.4764 6.83791 17.9964 2.35791 12.4764 2.35791ZM4.47644 12.3579C4.47644 7.93791 8.05644 4.35791 12.4764 4.35791C14.3264 4.35791 16.0264 4.98791 17.3764 6.04791L6.16644 17.2579C5.10644 15.9079 4.47644 14.2079 4.47644 12.3579ZM12.4764 20.3579C10.6264 20.3579 8.92644 19.7279 7.57644 18.6679L18.7864 7.45791C19.8464 8.80791 20.4764 10.5079 20.4764 12.3579C20.4764 16.7779 16.8964 20.3579 12.4764 20.3579Z" fill="#EBC832"/>
</svg>
