<svg width="22" height="21" viewBox="0 0 22 21" fill="none" xmlns="http://www.w3.org/2000/svg">
<path d="M18 1.75C18.2321 1.75 18.4546 1.84219 18.6187 2.00628C18.7828 2.17038 18.875 2.39294 18.875 2.625V18.375C18.875 18.6071 18.7828 18.8296 18.6187 18.9937C18.4546 19.1578 18.2321 19.25 18 19.25H4C3.76794 19.25 3.54538 19.1578 3.38128 18.9937C3.21719 18.8296 3.125 18.6071 3.125 18.375V2.625C3.125 2.39294 3.21719 2.17038 3.38128 2.00628C3.54538 1.84219 3.76794 1.75 4 1.75H18ZM17.125 3.5H4.875V17.5H17.125V3.5ZM14.5 14V15.75H7.5V14H14.5ZM11 5.25C11.9283 5.25 12.8185 5.61875 13.4749 6.27513C14.1313 6.9315 14.5 7.82174 14.5 8.75C14.5 9.67826 14.1313 10.5685 13.4749 11.2249C12.8185 11.8813 11.9283 12.25 11 12.25C10.0717 12.25 9.1815 11.8813 8.52513 11.2249C7.86875 10.5685 7.5 9.67826 7.5 8.75C7.5 7.82174 7.86875 6.9315 8.52513 6.27513C9.1815 5.61875 10.0717 5.25 11 5.25ZM11 7C10.5359 7 10.0908 7.18437 9.76256 7.51256C9.43437 7.84075 9.25 8.28587 9.25 8.75C9.25 9.21413 9.43437 9.65925 9.76256 9.98744C10.0908 10.3156 10.5359 10.5 11 10.5C11.4641 10.5 11.9092 10.3156 12.2374 9.98744C12.5656 9.65925 12.75 9.21413 12.75 8.75C12.75 8.28587 12.5656 7.84075 12.2374 7.51256C11.9092 7.18437 11.4641 7 11 7Z" fill="black"/>
</svg>
