<svg width="31" height="30" viewBox="0 0 31 30" fill="none" xmlns="http://www.w3.org/2000/svg">
<path d="M11.3667 24H10.3334C10.3334 24.3788 10.5545 24.725 10.9046 24.8944C11.2547 25.0638 11.6736 25.0272 11.9867 24.8L11.3667 24ZM15.5001 21L16.1201 20.2C15.7526 19.9334 15.2475 19.9334 14.8801 20.2L15.5001 21ZM19.6334 24L19.0134 24.8C19.3265 25.0272 19.7454 25.0638 20.0955 24.8944C20.4456 24.725 20.6667 24.3788 20.6667 24H19.6334ZM15.5001 17C12.6466 17 10.3334 14.7614 10.3334 12H8.26672C8.26672 15.866 11.5052 19 15.5001 19V17ZM20.6667 12C20.6667 14.7614 18.3535 17 15.5001 17V19C19.4949 19 22.7334 15.866 22.7334 12H20.6667ZM15.5001 7C18.3535 7 20.6667 9.23858 20.6667 12H22.7334C22.7334 8.134 19.4949 5 15.5001 5V7ZM15.5001 5C11.5052 5 8.26672 8.134 8.26672 12H10.3334C10.3334 9.23858 12.6466 7 15.5001 7V5ZM10.3334 16V24H12.4001V16H10.3334ZM11.9867 24.8L16.1201 21.8L14.8801 20.2L10.7467 23.2L11.9867 24.8ZM14.8801 21.8L19.0134 24.8L20.2534 23.2L16.1201 20.2L14.8801 21.8ZM20.6667 24V16H18.6001V24H20.6667Z" fill="black"/>
</svg>
