<svg width="24" height="26" viewBox="0 0 24 26" fill="none" xmlns="http://www.w3.org/2000/svg">
<path d="M23.25 13C23.25 12.8242 23.1973 12.6531 23.1 12.5125L20.85 9.2625C20.7801 9.16159 20.6895 9.07969 20.5854 9.02328C20.4812 8.96687 20.3664 8.9375 20.25 8.9375L13.1025 8.9375C12.298 7.63308 11.1275 6.64352 9.76408 6.11499C8.40062 5.58646 6.9164 5.54697 5.53063 6.00236C4.14486 6.45774 2.93101 7.38386 2.06836 8.64392C1.20571 9.90399 0.73999 11.4312 0.73999 13C0.73999 14.5688 1.20571 16.096 2.06836 17.3561C2.93101 18.6161 4.14485 19.5423 5.53063 19.9976C6.9164 20.453 8.40062 20.4135 9.76408 19.885C11.1275 19.3565 12.298 18.3669 13.1025 17.0625L14.25 17.0625C14.3487 17.0631 14.4465 17.0426 14.5379 17.0022C14.6293 16.9618 14.7124 16.9022 14.7825 16.8269L15.75 15.7706L16.7175 16.8269C16.7872 16.903 16.8701 16.9635 16.9615 17.0047C17.0529 17.046 17.151 17.0672 17.25 17.0672C17.349 17.0672 17.447 17.046 17.5384 17.0047C17.6298 16.9635 17.7128 16.903 17.7825 16.8269L18.75 15.7706L19.7175 16.8269C19.7937 16.9093 19.8853 16.9731 19.9863 17.0137C20.0872 17.0544 20.1951 17.071 20.3025 17.0625C20.4099 17.0541 20.5144 17.0207 20.6089 16.9646C20.7034 16.9086 20.7856 16.8311 20.85 16.7375L23.1 13.4875C23.1973 13.3469 23.25 13.1758 23.25 13ZM19.875 10.5625L21.5625 13L20.1675 15.015L19.2825 14.0481C19.2128 13.972 19.1298 13.9115 19.0384 13.8703C18.947 13.829 18.849 13.8078 18.75 13.8078C18.651 13.8078 18.5529 13.829 18.4615 13.8703C18.3701 13.9115 18.2872 13.972 18.2175 14.0481L17.25 15.1044L16.2825 14.0481C16.2128 13.972 16.1298 13.9115 16.0384 13.8703C15.947 13.829 15.849 13.8078 15.75 13.8078C15.651 13.8078 15.5529 13.829 15.4615 13.8703C15.3701 13.9115 15.2872 13.972 15.2175 14.0481L13.9425 15.4375L12.69 15.4375C12.5591 15.4384 12.4307 15.4763 12.3175 15.5476C12.2044 15.6188 12.1104 15.721 12.045 15.8438C11.4671 16.928 10.5752 17.7754 9.50743 18.2546C8.4397 18.7337 7.25587 18.8177 6.13954 18.4937C5.02322 18.1697 4.03679 17.4556 3.33324 16.4623C2.62969 15.469 2.24834 14.252 2.24834 13C2.24834 11.748 2.62969 10.531 3.33324 9.53767C4.03679 8.54438 5.02322 7.83034 6.13954 7.5063C7.25587 7.18225 8.4397 7.26631 9.50743 7.74544C10.5752 8.22456 11.4671 9.07198 12.045 10.1563C12.1104 10.2791 12.2044 10.3812 12.3175 10.4524C12.4307 10.5237 12.5591 10.5616 12.69 10.5625L19.875 10.5625Z" fill="#101820"/>
<path d="M6.75 13C6.75 13.4487 6.41421 13.8125 6 13.8125C5.58579 13.8125 5.25 13.4487 5.25 13C5.25 12.5513 5.58579 12.1875 6 12.1875C6.41421 12.1875 6.75 12.5513 6.75 13Z" fill="#101820"/>
<path d="M7.5 13C7.5 12.6786 7.41203 12.3644 7.24721 12.0972C7.08238 11.83 6.84811 11.6217 6.57403 11.4987C6.29994 11.3757 5.99834 11.3435 5.70737 11.4062C5.41639 11.4689 5.14912 11.6237 4.93934 11.851C4.72956 12.0782 4.5867 12.3678 4.52882 12.683C4.47094 12.9982 4.50065 13.3249 4.61418 13.6219C4.72771 13.9188 4.91997 14.1726 5.16665 14.3511C5.41332 14.5297 5.70333 14.625 6 14.625C6.39783 14.625 6.77936 14.4538 7.06066 14.1491C7.34197 13.8443 7.5 13.431 7.5 13Z" fill="#101820"/>
</svg>
