<svg width="21" height="21" viewBox="0 0 21 21" fill="none" xmlns="http://www.w3.org/2000/svg">
<g clip-path="url(#clip0_375_680)">
<path d="M-5.28217e-07 6.29081L0 18.375L21 18.375L21 2.625L3.6645 2.625L-5.28217e-07 6.29081ZM1.58353 6.56381L3.9375 4.20919L3.9375 6.56381L1.58353 6.56381ZM19.6875 3.9375L19.6875 17.0625L1.31119 17.0625L1.31119 7.875L5.24934 7.875L5.24934 3.9375L19.6875 3.9375Z" fill="#010002"/>
<path d="M13.7812 12.4688H5.90625V13.7812H13.7812V12.4688Z" fill="#010002"/>
<path d="M16.4062 7.21875H5.90625V8.53125H16.4062V7.21875Z" fill="#010002"/>
<path d="M16.4062 9.84375H5.90625V11.1562H16.4062V9.84375Z" fill="#010002"/>
</g>
<defs>
<clipPath id="clip0_375_680">
<rect width="21" height="21" fill="white" transform="translate(0 21) rotate(-90)"/>
</clipPath>
</defs>
</svg>
