<svg width="26" height="26" viewBox="0 0 26 26" fill="none" xmlns="http://www.w3.org/2000/svg">
<path d="M14.625 23.5625H11.375C11.1595 23.5625 10.9528 23.4769 10.8005 23.3245C10.6481 23.1722 10.5625 22.9655 10.5625 22.75V21.58C10.5655 21.3575 10.5022 21.1392 10.3808 20.9528C10.2593 20.7664 10.0851 20.6203 9.88038 20.5332C9.67566 20.4461 9.44964 20.4219 9.2311 20.4636C9.01255 20.5053 8.81136 20.6111 8.65312 20.7675L7.84062 21.58C7.76509 21.6562 7.67523 21.7166 7.57622 21.7578C7.47721 21.7991 7.37101 21.8203 7.26375 21.8203C7.15649 21.8203 7.05029 21.7991 6.95128 21.7578C6.85227 21.7166 6.76241 21.6562 6.68687 21.58L4.37937 19.3213C4.30322 19.2457 4.24278 19.1559 4.20153 19.0568C4.16028 18.9578 4.13904 18.8516 4.13904 18.7444C4.13904 18.6371 4.16028 18.5309 4.20153 18.4319C4.24278 18.3329 4.30322 18.243 4.37937 18.1675L5.19187 17.355C5.34828 17.1968 5.45408 16.9956 5.4958 16.777C5.53752 16.5585 5.51328 16.3325 5.42616 16.1277C5.33905 15.923 5.19299 15.7488 5.00658 15.6274C4.82018 15.5059 4.60185 15.4426 4.37937 15.4456H3.25C3.03451 15.4456 2.82785 15.36 2.67548 15.2076C2.5231 15.0553 2.4375 14.8486 2.4375 14.6331V11.375C2.4375 11.1595 2.5231 10.9528 2.67548 10.8005C2.82785 10.6481 3.03451 10.5625 3.25 10.5625H4.42C4.64247 10.5655 4.8608 10.5022 5.04721 10.3808C5.23362 10.2593 5.37967 10.0851 5.46679 9.88038C5.55391 9.67566 5.57815 9.44964 5.53643 9.2311C5.49471 9.01255 5.38891 8.81136 5.2325 8.65312L4.42 7.84062C4.34385 7.76509 4.2834 7.67523 4.24215 7.57622C4.2009 7.47721 4.17966 7.37101 4.17966 7.26375C4.17966 7.15649 4.2009 7.05029 4.24215 6.95128C4.2834 6.85227 4.34385 6.76241 4.42 6.68687L6.67875 4.37937C6.75428 4.30322 6.84415 4.24278 6.94316 4.20153C7.04217 4.16028 7.14837 4.13904 7.25563 4.13904C7.36288 4.13904 7.46908 4.16028 7.56809 4.20153C7.6671 4.24278 7.75697 4.30322 7.8325 4.37937L8.645 5.19187C8.80324 5.34828 9.00443 5.45408 9.22297 5.4958C9.44152 5.53752 9.66753 5.51328 9.87226 5.42616C10.077 5.33905 10.2512 5.19299 10.3726 5.00658C10.4941 4.82018 10.5574 4.60185 10.5544 4.37937V3.25C10.5544 3.03451 10.64 2.82785 10.7924 2.67548C10.9447 2.5231 11.1514 2.4375 11.3669 2.4375H14.6169C14.8324 2.4375 15.039 2.5231 15.1914 2.67548C15.3438 2.82785 15.4294 3.03451 15.4294 3.25V4.42C15.4264 4.64247 15.4896 4.8608 15.6111 5.04721C15.7326 5.23362 15.9068 5.37967 16.1115 5.46679C16.3162 5.55391 16.5422 5.57815 16.7608 5.53643C16.9793 5.49471 17.1805 5.38891 17.3387 5.2325L18.1512 4.42C18.2268 4.34385 18.3166 4.2834 18.4157 4.24215C18.5147 4.2009 18.6209 4.17966 18.7281 4.17966C18.8354 4.17966 18.9416 4.2009 19.0406 4.24215C19.1396 4.2834 19.2295 4.34385 19.305 4.42L21.6044 6.71938C21.6805 6.79491 21.741 6.88477 21.7822 6.98378C21.8235 7.08279 21.8447 7.18899 21.8447 7.29625C21.8447 7.40351 21.8235 7.50971 21.7822 7.60872C21.741 7.70773 21.6805 7.79759 21.6044 7.87312L20.7919 8.68562C20.6355 8.84386 20.5297 9.04505 20.4879 9.2636C20.4462 9.48214 20.4705 9.70816 20.5576 9.91288C20.6447 10.1176 20.7908 10.2918 20.9772 10.4133C21.1636 10.5347 21.3819 10.598 21.6044 10.595H22.75C22.9655 10.595 23.1722 10.6806 23.3245 10.833C23.4769 10.9853 23.5625 11.192 23.5625 11.4075V14.6575C23.5625 14.873 23.4769 15.0797 23.3245 15.232C23.1722 15.3844 22.9655 15.47 22.75 15.47H21.58C21.3575 15.467 21.1392 15.5303 20.9528 15.6517C20.7664 15.7732 20.6203 15.9474 20.5332 16.1521C20.4461 16.3568 20.4219 16.5829 20.4636 16.8014C20.5053 17.0199 20.6111 17.2211 20.7675 17.3794L21.58 18.1919C21.6562 18.2674 21.7166 18.3573 21.7578 18.4563C21.7991 18.5553 21.8203 18.6615 21.8203 18.7688C21.8203 18.876 21.7991 18.9822 21.7578 19.0812C21.7166 19.1802 21.6562 19.2701 21.58 19.3456L19.2806 21.645C19.2051 21.7212 19.1152 21.7816 19.0162 21.8228C18.9172 21.8641 18.811 21.8853 18.7038 21.8853C18.5965 21.8853 18.4903 21.8641 18.3913 21.8228C18.2923 21.7816 18.2024 21.7212 18.1269 21.645L17.3144 20.8325C17.1561 20.6761 16.9549 20.5703 16.7364 20.5286C16.5179 20.4869 16.2918 20.5111 16.0871 20.5982C15.8824 20.6853 15.7082 20.8314 15.5867 21.0178C15.4653 21.2042 15.402 21.4225 15.405 21.645V22.75C15.4052 22.96 15.324 23.1619 15.1786 23.3133C15.0332 23.4648 14.8348 23.5541 14.625 23.5625ZM12.1875 21.9375H13.8125V21.58C13.8118 21.0375 13.9724 20.507 14.2737 20.0558C14.575 19.6047 15.0036 19.2532 15.505 19.046C16.0064 18.8389 16.5581 18.7853 17.09 18.8922C17.6219 18.999 18.11 19.2615 18.4925 19.6462L18.7444 19.8981L19.8981 18.7444L19.6462 18.4925C19.2615 18.11 18.999 17.6219 18.8922 17.09C18.7853 16.5581 18.8389 16.0064 19.046 15.505C19.2532 15.0036 19.6047 14.575 20.0558 14.2737C20.507 13.9724 21.0375 13.8118 21.58 13.8125H21.9375V12.1875H21.58C21.0375 12.1882 20.507 12.0276 20.0558 11.7263C19.6047 11.425 19.2532 10.9964 19.046 10.495C18.8389 9.9936 18.7853 9.44195 18.8922 8.91005C18.999 8.37815 19.2615 7.88999 19.6462 7.5075L19.8981 7.25563L18.7444 6.10188L18.4925 6.35375C18.11 6.73851 17.6219 7.00097 17.09 7.10783C16.5581 7.2147 16.0064 7.16114 15.505 6.95396C15.0036 6.74678 14.575 6.39532 14.2737 5.94417C13.9724 5.49302 13.8118 4.96253 13.8125 4.42V4.0625H12.1875V4.42C12.1882 4.96253 12.0276 5.49302 11.7263 5.94417C11.425 6.39532 10.9964 6.74678 10.495 6.95396C9.9936 7.16114 9.44195 7.2147 8.91005 7.10783C8.37815 7.00097 7.88999 6.73851 7.5075 6.35375L7.25563 6.10188L6.10188 7.25563L6.35375 7.5075C6.73851 7.88999 7.00097 8.37815 7.10783 8.91005C7.2147 9.44195 7.16114 9.9936 6.95396 10.495C6.74678 10.9964 6.39532 11.425 5.94417 11.7263C5.49302 12.0276 4.96253 12.1882 4.42 12.1875H4.0625V13.8125H4.42C4.96253 13.8118 5.49302 13.9724 5.94417 14.2737C6.39532 14.575 6.74678 15.0036 6.95396 15.505C7.16114 16.0064 7.2147 16.5581 7.10783 17.09C7.00097 17.6219 6.73851 18.11 6.35375 18.4925L6.10188 18.7444L7.25563 19.8981L7.5075 19.6462C7.88999 19.2615 8.37815 18.999 8.91005 18.8922C9.44195 18.7853 9.9936 18.8389 10.495 19.046C10.9964 19.2532 11.425 19.6047 11.7263 20.0558C12.0276 20.507 12.1882 21.0375 12.1875 21.58V21.9375Z" fill="black"/>
<path d="M13 17.0625C12.1965 17.0625 11.4111 16.8242 10.743 16.3778C10.0749 15.9315 9.55422 15.297 9.24674 14.5547C8.93926 13.8123 8.85881 12.9955 9.01556 12.2074C9.17231 11.4194 9.55923 10.6955 10.1274 10.1274C10.6955 9.55923 11.4194 9.17231 12.2074 9.01556C12.9955 8.85881 13.8123 8.93926 14.5547 9.24674C15.297 9.55422 15.9315 10.0749 16.3778 10.743C16.8242 11.4111 17.0625 12.1965 17.0625 13C17.0625 14.0774 16.6345 15.1108 15.8726 15.8726C15.1108 16.6345 14.0774 17.0625 13 17.0625ZM13 10.5625C12.5179 10.5625 12.0466 10.7055 11.6458 10.9733C11.245 11.2411 10.9325 11.6218 10.748 12.0672C10.5636 12.5126 10.5153 13.0027 10.6093 13.4755C10.7034 13.9484 10.9355 14.3827 11.2764 14.7236C11.6173 15.0645 12.0516 15.2966 12.5245 15.3907C12.9973 15.4847 13.4874 15.4364 13.9328 15.252C14.3782 15.0675 14.7589 14.755 15.0267 14.3542C15.2945 13.9534 15.4375 13.4821 15.4375 13C15.4375 12.3535 15.1807 11.7335 14.7236 11.2764C14.2665 10.8193 13.6465 10.5625 13 10.5625Z" fill="black"/>
</svg>
