<svg width="59" height="27" viewBox="0 0 59 27" fill="none" xmlns="http://www.w3.org/2000/svg">
<path d="M48.6481 20.7932H52.9805C55.4367 20.7932 56.9036 19.0913 57.2789 16.798C57.3433 16.4114 57.3737 16.0096 57.3737 15.5965V14.3911C57.3737 14.0576 57.3358 13.7354 57.2675 13.4246C56.8278 11.4649 55.0767 9.99802 52.9843 9.99802L43.4021 8.54628L34.9078 3.95607C34.4188 3.69074 33.945 3.40267 33.4788 3.10701C32.0725 2.20868 30.4313 1.72729 28.7521 1.72729H19.928C14.6328 1.72729 10.903 5.00602 8.07152 9.99802H3.53817C2.16603 9.99802 1.04785 11.12 1.04785 12.4921V15.3956C1.04785 18.3635 3.39413 20.7932 7.07464 20.7932" stroke="#FFDE52" stroke-width="2" stroke-miterlimit="10" stroke-linecap="round" stroke-linejoin="round"/>
<path d="M16.7627 20.7931H38.9595" stroke="#FFDE52" stroke-width="2" stroke-miterlimit="10" stroke-linecap="round" stroke-linejoin="round"/>
<path d="M48.6483 20.7931C48.6483 23.4692 46.4802 25.6373 43.8041 25.6373C41.1281 25.6373 38.96 23.4692 38.96 20.7931C38.96 18.1171 41.1281 15.949 43.8041 15.949C46.4802 15.949 48.6483 18.1171 48.6483 20.7931Z" stroke="#FFDE52" stroke-width="2" stroke-miterlimit="10" stroke-linecap="round" stroke-linejoin="round"/>
<path d="M11.9184 25.6373C14.5938 25.6373 16.7626 23.4685 16.7626 20.7931C16.7626 18.1178 14.5938 15.949 11.9184 15.949C9.24303 15.949 7.07422 18.1178 7.07422 20.7931C7.07422 23.4685 9.24303 25.6373 11.9184 25.6373Z" stroke="#FFDE52" stroke-width="2" stroke-miterlimit="10" stroke-linecap="round" stroke-linejoin="round"/>
<path d="M24.7378 4.55127H19.7951C19.4464 4.55127 18.9764 4.64224 18.4457 4.79007C16.0956 5.45339 14.0564 6.88997 12.6539 8.83067L11.8124 9.99433C11.6874 10.1687 11.8124 10.4151 12.0285 10.4151H37.0529C37.9778 10.4151 38.3038 9.22866 37.5002 8.78518L30.6319 4.98338C30.1202 4.6991 29.5403 4.55127 28.9528 4.55127H24.7378Z" stroke="#FFDE52" stroke-width="2" stroke-miterlimit="10" stroke-linecap="round" stroke-linejoin="round"/>
<path d="M24.7383 4.55127V10.4113" stroke="#FFDE52" stroke-width="2" stroke-miterlimit="10" stroke-linecap="round" stroke-linejoin="round"/>
<path d="M24.7383 13.7998V20.7932" stroke="#FFDE52" stroke-width="2" stroke-miterlimit="10" stroke-linecap="round" stroke-linejoin="round"/>
<path d="M57.283 16.798H52.1621V13.4246H57.2678" stroke="#FFDE52" stroke-width="2" stroke-miterlimit="10" stroke-linecap="round" stroke-linejoin="round"/>
</svg>
