<svg width="11" height="15" viewBox="0 0 11 15" fill="none" xmlns="http://www.w3.org/2000/svg">
<path d="M5.87379 0.264282C5.97906 0.276383 6.08545 0.286064 6.19072 0.299375C6.94217 0.391341 7.64098 0.652718 8.27372 1.09924C9.42385 1.90999 10.1406 3.04626 10.4273 4.49593C10.5146 4.93519 10.5482 5.38171 10.5102 5.83065C10.4788 6.19731 10.3903 6.55186 10.2806 6.89916C10.0622 7.59616 9.76542 8.25445 9.43841 8.897C8.85047 10.0563 8.17293 11.1538 7.46068 12.2271C6.88841 13.0887 6.29151 13.9309 5.66885 14.7502C5.66213 14.7598 5.65429 14.7683 5.64421 14.7804C5.63413 14.7707 5.62405 14.7623 5.61621 14.7526C4.37537 13.1045 3.21068 11.397 2.19942 9.57222C1.79514 8.84013 1.42333 8.08866 1.13216 7.29485C0.977613 6.87253 0.848825 6.44174 0.784991 5.99159C0.741315 5.68907 0.745795 5.38413 0.770432 5.0804C0.832026 4.33136 1.02577 3.62468 1.37182 2.97244C2.07735 1.63772 3.12445 0.784617 4.50304 0.409492C4.78189 0.333257 5.06635 0.290904 5.35416 0.273963C5.37096 0.272753 5.38664 0.267912 5.40343 0.264282C5.56022 0.264282 5.717 0.264282 5.87379 0.264282ZM7.47188 5.0683C7.46852 3.96108 6.64764 3.07893 5.62517 3.08256C4.61727 3.08498 3.79975 3.9756 3.80199 5.0683C3.80423 6.16827 4.62847 7.05163 5.64869 7.04921C6.65436 7.04558 7.47412 6.15496 7.47188 5.0683Z" fill="#FFDE52"/>
</svg>
