<svg width="12" height="13" viewBox="0 0 12 13" fill="none" xmlns="http://www.w3.org/2000/svg">
<g clip-path="url(#clip0_34_468)">
<path d="M6 0.320312C2.6915 0.320312 0 3.01181 0 6.32031C0 9.62881 2.6915 12.3203 6 12.3203C9.3085 12.3203 12 9.62881 12 6.32031C12 3.01181 9.3085 0.320312 6 0.320312ZM8.8535 9.42381C8.756 9.52131 8.628 9.57031 8.5 9.57031C8.372 9.57031 8.244 9.52131 8.1465 9.42381L5.6465 6.92381C5.5525 6.83031 5.5 6.70331 5.5 6.57031V3.32031C5.5 3.04381 5.724 2.82031 6 2.82031C6.276 2.82031 6.5 3.04381 6.5 3.32031V6.36331L8.8535 8.71681C9.049 8.91231 9.049 9.22831 8.8535 9.42381Z" fill="#FFDE52"/>
</g>
<defs>
<clipPath id="clip0_34_468">
<rect width="12" height="12" fill="white" transform="translate(0 0.320312)"/>
</clipPath>
</defs>
</svg>
