<svg width="15" height="15" viewBox="0 0 15 15" fill="none" xmlns="http://www.w3.org/2000/svg">
<g clip-path="url(#clip0_68_1304)">
<path d="M7.20288 0.939514C3.35288 0.939514 0.202881 4.08951 0.202881 7.93951C0.202881 11.7895 3.35288 14.9395 7.20288 14.9395C11.0529 14.9395 14.2029 11.7895 14.2029 7.93951C14.2029 4.08951 11.0529 0.939514 7.20288 0.939514ZM7.20288 13.5395C4.12288 13.5395 1.60288 11.0195 1.60288 7.93951C1.60288 4.85951 4.12288 2.33951 7.20288 2.33951C10.2829 2.33951 12.8029 4.85951 12.8029 7.93951C12.8029 11.0195 10.2829 13.5395 7.20288 13.5395Z" fill="#798196"/>
<path d="M7.55281 4.43951H6.50281V8.63951L10.1428 10.8795L10.7028 9.96951L7.55281 8.07951V4.43951Z" fill="#798196"/>
</g>
<defs>
<clipPath id="clip0_68_1304">
<rect width="14" height="14" fill="white" transform="translate(0.202881 0.939514)"/>
</clipPath>
</defs>
</svg>
