<svg width="19" height="19" viewBox="0 0 19 19" fill="none" xmlns="http://www.w3.org/2000/svg">
<circle cx="9.84241" cy="9.422" r="7.54749" stroke="#FFDE52" stroke-width="3"/>
<path d="M9.65212 10.054L9.65134 10.0533C9.44545 9.848 9.33008 9.56935 9.33008 9.27826V5.09229C9.33008 4.99055 9.41291 4.90771 9.51466 4.90771C9.6164 4.90771 9.69923 4.99055 9.69923 5.09229H10.1992L9.69923 5.09233V5.09243V5.09261V5.09286V5.09317V5.09356V5.09401V5.09454V5.09513V5.09579V5.09652V5.09732V5.09819V5.09912V5.10013V5.10119V5.10233V5.10353V5.1048V5.10614V5.10754V5.10901V5.11055V5.11215V5.11381V5.11554V5.11734V5.1192V5.12112V5.12311V5.12516V5.12728V5.12946V5.1317V5.13401V5.13638V5.13881V5.1413V5.14386V5.14647V5.14915V5.15189V5.1547V5.15756V5.16048V5.16347V5.16651V5.16962V5.17278V5.176V5.17929V5.18263V5.18603V5.18949V5.19301V5.19659V5.20022V5.20391V5.20766V5.21147V5.21534V5.21926V5.22324V5.22727V5.23136V5.23551V5.23971V5.24397V5.24828V5.25265V5.25707V5.26155V5.26608V5.27067V5.27531V5.28V5.28475V5.28955V5.29441V5.29931V5.30427V5.30928V5.31435V5.31946V5.32463V5.32985V5.33512V5.34044V5.34581V5.35123V5.3567V5.36223V5.3678V5.37342V5.37909V5.38481V5.39058V5.3964V5.40226V5.40818V5.41414V5.42015V5.42621V5.43232V5.43847V5.44467V5.45091V5.45721V5.46354V5.46993V5.47636V5.48283V5.48935V5.49592V5.50253V5.50919V5.51589V5.52263V5.52942V5.53625V5.54313V5.55004V5.557V5.56401V5.57106V5.57814V5.58528V5.59245V5.59966V5.60692V5.61422V5.62155V5.62893V5.63635V5.64381V5.65131V5.65885V5.66643V5.67405V5.68171V5.6894V5.69714V5.70491V5.71272V5.72057V5.72846V5.73639V5.74435V5.75235V5.76038V5.76846V5.77657V5.78471V5.79289V5.80111V5.80936V5.81765V5.82598V5.83433V5.84273V5.85115V5.85961V5.86811V5.87664V5.8852V5.8938V5.90242V5.91109V5.91978V5.92851V5.93726V5.94605V5.95487V5.96373V5.97261V5.98153V5.99047V5.99945V6.00846V6.01749V6.02656V6.03566V6.04478V6.05394V6.06312V6.07233V6.08157V6.09084V6.10014V6.10946V6.11881V6.12819V6.1376V6.14703V6.15649V6.16598V6.17549V6.18503V6.19459V6.20418V6.2138V6.22344V6.2331V6.24279V6.25251V6.26224V6.27201V6.28179V6.2916V6.30143V6.31129V6.32117V6.33107V6.34099V6.35093V6.3609V6.37089V6.3809V6.39093V6.40098V6.41105V6.42115V6.43126V6.44139V6.45155V6.46172V6.47191V6.48212V6.49235V6.5026V6.51287V6.52315V6.53346V6.54378V6.55412V6.56447V6.57484V6.58523V6.59564V6.60606V6.6165V6.62696V6.63743V6.64791V6.65841V6.66893V6.67946V6.69001V6.70057V6.71114V6.72173V6.73233V6.74295V6.75358V6.76422V6.77487V6.78554V6.79622V6.80691V6.81761V6.82833V6.83905V6.84979V6.86054V6.87129V6.88206V6.89284V6.90363V6.91443V6.92524V6.93606V6.94689V6.95772V6.96857V6.97942V6.99028V7.00115V7.01203V7.02291V7.0338V7.0447V7.05561V7.06652V7.07744V7.08837V7.0993V7.11023V7.12118V7.13212V7.14307V7.15403V7.16499V7.17596V7.18693V7.1979V7.20888V7.21986V7.23085V7.24183V7.25282V7.26382V7.27481V7.28581V7.29681V7.30781V7.31881V7.32981V7.34082V7.35182V7.36283V7.37383V7.38484V7.39584V7.40685V7.41785V7.42885V7.43985V7.45085V7.46185V7.47285V7.48385V7.49484V7.50583V7.51682V7.5278V7.53878V7.54976V7.56073V7.57171V7.58267V7.59363V7.60459V7.61554V7.62649V7.63744V7.64837V7.6593V7.67023V7.68115V7.69206V7.70297V7.71387V7.72476V7.73565V7.74653V7.7574V7.76826V7.77911V7.78996V7.80079V7.81162V7.82244V7.83325V7.84405V7.85484V7.86562V7.87639V7.88715V7.8979V7.90864V7.91937V7.93008V7.94079V7.95148V7.96216V7.97283V7.98348V7.99413V8.00476V8.01537V8.02598V8.03657V8.04714V8.0577V8.06825V8.07878V8.0893V8.09981V8.11029V8.12077V8.13122V8.14166V8.15209V8.1625V8.17289V8.18326V8.19362V8.20396V8.21428V8.22459V8.23488V8.24515V8.2554V8.26563V8.27584V8.28604V8.29621V8.30637V8.3165V8.32662V8.33671V8.34679V8.35684V8.36688V8.37689V8.38688V8.39685V8.40679V8.41672V8.42662V8.4365V8.44636V8.4562V8.46601V8.4758V8.48556V8.4953V8.50502V8.51471V8.52438V8.53402V8.54364V8.55323V8.5628V8.57234V8.58185V8.59134V8.60081V8.61024V8.61965V8.62903V8.63839V8.64772V8.65702V8.66629V8.67553V8.68475V8.69394V8.70309V8.71222V8.72132V8.73039V8.73943V8.74844V8.75742V8.76637V8.77529V8.78418V8.79303V8.80186V8.81065V8.81941V8.82814V8.83684V8.84551V8.85414V8.86274V8.8713V8.87984V8.88833V8.8968V8.90523V8.91363V8.92199V8.93032V8.93861V8.94687V8.95509V8.96327V8.97142V8.97954V8.98761V8.99565V9.00366V9.01162V9.01955V9.02745V9.0353V9.04312V9.05089V9.05863V9.06634V9.074V9.08162V9.0892V9.09675V9.10425V9.11172V9.11914V9.12652V9.13387V9.14117V9.14843V9.15565V9.16283V9.16996V9.17706V9.18411V9.19112V9.19808V9.20501V9.21189V9.21872V9.22551V9.23226V9.23897V9.24563V9.25225V9.25882V9.26534V9.27182V9.27826C9.69923 9.46899 9.77416 9.65522 9.91231 9.79337L9.91255 9.79361C10.257 10.1376 10.8745 10.7551 11.4061 11.2869L12.0939 11.9749L12.3052 12.1862L12.3629 12.244L12.378 12.259L12.3818 12.2629L12.3828 12.2638L12.383 12.2641L12.3831 12.2641L12.7367 11.9107L12.3831 12.2642L12.3838 12.2648C12.4552 12.336 12.4552 12.4529 12.3838 12.5241L12.3826 12.5253C12.3114 12.5967 12.1945 12.5967 12.1234 12.5253L12.1227 12.5246L11.7692 12.8782L12.1226 12.5246L12.1226 12.5245L12.1223 12.5243L12.1214 12.5233L12.1175 12.5195L12.1025 12.5044L12.0447 12.4467L11.8334 12.2354L11.1454 11.5476C10.6137 11.016 9.99607 10.3984 9.65212 10.054Z" fill="#FFDE52" stroke="#FFDE52"/>
</svg>
