<svg width="62" height="68" viewBox="0 0 62 68" fill="none" xmlns="http://www.w3.org/2000/svg">
<g clip-path="url(#clip0_34_367)">
<path d="M33.9296 2.44544C35.1074 2.18498 36.1923 1.78663 37.2772 1.75599C38.0985 1.72534 39.0749 1.98581 39.7568 2.44544C42.6085 4.37593 44.7007 6.93458 45.5531 10.3053C46.328 13.4002 45.5841 16.2499 43.9723 18.9618C43.6623 19.4827 43.4608 20.1415 43.4763 20.7391C43.4918 23.1292 43.4143 25.4887 42.4535 27.7256C41.7096 29.4875 40.7022 31.0656 39.3849 32.4752C39.1369 32.7356 38.9664 33.1799 38.9509 33.5476C38.8889 34.6201 38.9664 35.6926 38.9199 36.7651C38.8889 37.4393 39.1369 37.9755 39.6638 38.3585C40.2528 38.8028 40.8572 39.2625 41.5236 39.5842C44.5922 41.0398 47.6608 42.4953 50.7604 43.8895C53.364 45.0539 55.8127 46.4482 57.812 48.5012C60.2606 51.0139 61.5935 54.0016 61.5625 57.5255C61.547 60.5131 61.5625 63.5008 61.5625 66.4884C61.5625 66.7642 61.547 67.04 61.5315 67.3617C60.8496 67.3617 60.2141 67.3617 59.5167 67.3617C59.5012 67.04 59.4857 66.7795 59.4857 66.5037C59.4857 63.6386 59.4237 60.7889 59.5012 57.9238C59.5942 54.308 58.1839 51.3663 55.4098 49.1447C53.8445 47.8884 52.0467 46.8772 50.249 45.9579C47.3818 44.5024 44.4062 43.2613 41.5081 41.8824C40.9502 41.622 40.6247 41.6373 40.1753 42.0969C37.5561 44.7322 34.8905 47.3368 32.2403 49.9567C31.3414 50.8454 30.8765 50.8454 29.9776 49.9567C27.3275 47.3368 24.6773 44.7322 22.0427 42.0969C21.5932 41.6526 21.2678 41.622 20.7098 41.8978C17.8737 43.246 15.0221 44.5637 12.1705 45.8506C9.84576 46.8925 7.67604 48.1488 5.87828 49.9721C3.77055 52.1324 2.6702 54.6757 2.68569 57.694C2.70119 60.651 2.6702 63.6233 2.70119 66.5803C2.71669 67.2545 2.51522 67.5303 1.83331 67.423C1.67833 67.3924 1.52335 67.4077 1.36837 67.423C0.763947 67.4996 0.562473 67.2698 0.577971 66.6569C0.608967 63.4854 0.531478 60.3293 0.608967 57.1577C0.701955 53.0363 2.6237 49.7882 5.78529 47.2142C7.92401 45.4676 10.4037 44.3798 12.9299 43.2767C15.859 42.005 18.6951 40.5342 21.5467 39.1093C22.7711 38.4964 23.2825 37.5465 23.3135 36.091C23.3445 33.9 23.0345 32.0002 21.6707 30.1157C19.9039 27.7102 19.253 24.7839 18.7571 21.8728C18.7106 21.6124 18.6176 21.3213 18.4471 21.1221C15.5645 17.9965 15.0996 14.3501 16.3859 10.4891C16.9593 8.78846 17.8737 7.19504 18.7726 5.61695C19.3615 4.5751 20.2449 4.66703 20.8648 5.67823C21.7017 7.08779 21.7172 7.08779 22.833 5.92338C24.9253 3.74775 27.219 1.87856 30.1481 0.913316C30.892 0.668175 31.6979 0.530284 32.4883 0.438356C33.4802 0.331107 33.8366 0.714139 33.8831 1.6947C33.8366 2.00113 33.8986 2.27691 33.9296 2.44544ZM41.4616 21.3213C41.2601 19.2222 41.0897 17.1079 40.8417 15.0089C40.6712 13.5381 39.2919 12.7413 37.8041 13.155C33.6351 14.3348 29.4662 14.3348 25.2972 13.155C23.8714 12.7567 22.6936 13.3848 22.3216 14.8097C21.8257 16.7862 21.3607 18.7779 20.8803 20.7544C20.8183 21.0302 20.7718 21.3213 20.8183 21.5817C21.3297 24.6613 22.2441 27.5877 24.1039 30.1616C27.4824 34.804 33.3717 35.3249 37.5251 31.3107C40.3458 28.5682 41.5856 25.2282 41.4616 21.3213ZM19.2065 18.5941C19.315 18.211 19.3925 17.9506 19.4545 17.6901C19.749 16.5257 19.9969 15.3613 20.3069 14.1969C20.9733 11.7301 23.3755 10.4278 25.8552 11.1479C29.6367 12.2511 33.4337 12.2511 37.2152 11.1633C40.0358 10.3512 42.6395 12.0672 42.9649 14.9783C42.9804 15.1621 43.0424 15.3306 43.0889 15.5145C43.6623 14.3807 43.8638 13.2316 43.7243 12.0366C43.3679 9.00295 41.7406 6.72008 39.4624 4.80492C37.9126 3.50261 36.6572 3.42601 34.9835 4.55978C33.8366 5.32585 32.6743 5.0041 32.1008 3.74775C31.9459 3.41069 31.8374 3.04297 31.6824 2.58334C31.1245 2.76719 30.5665 2.90508 30.0551 3.11958C27.7304 4.10014 25.8707 5.69356 24.1504 7.48615C22.5541 9.17149 21.6397 9.27874 19.749 8.05303C17.6102 11.01 16.9903 16.0048 19.2065 18.5941ZM38.5325 40.4575C38.0056 39.6302 37.2307 38.7875 36.9517 37.8223C36.6727 36.8417 36.8897 35.7386 36.8897 34.4976C32.9222 36.52 29.1872 36.6425 25.3282 34.3597C25.2972 36.6732 25.7467 39.002 23.4375 40.289C26.0721 42.8783 28.6138 45.391 31.078 47.8271C33.5576 45.391 36.0993 42.8783 38.5325 40.4575Z" fill="black"/>
<path d="M40.0672 57.311C38.8739 57.311 37.696 57.2957 36.5027 57.3263C35.9292 57.3416 35.6038 57.1884 35.6968 56.5603C35.7123 56.407 35.7123 56.2538 35.6968 56.1006C35.6038 55.4265 35.8672 55.212 36.5492 55.2273C38.9513 55.258 41.3535 55.2733 43.7402 55.2273C44.5616 55.212 44.5926 55.641 44.5616 56.2232C44.5306 56.7748 44.7011 57.3723 43.7557 57.3263C42.5469 57.265 41.307 57.311 40.0672 57.311Z" fill="black"/>
<path d="M11.9069 60.896C12.6508 60.896 13.2707 60.896 13.9991 60.896C13.9991 61.325 13.9991 61.7233 13.9991 62.1217C13.9991 63.6538 13.9836 65.186 13.9991 66.7028C13.9991 67.1624 13.9061 67.4075 13.3637 67.3922C11.5969 67.3616 11.9224 67.5301 11.9069 65.998C11.8914 64.328 11.9069 62.6579 11.9069 60.896Z" fill="black"/>
<path d="M50.2179 60.9268C50.2179 63.0871 50.2179 65.1708 50.2179 67.3157C49.5514 67.3157 48.9005 67.3157 48.2031 67.3157C48.2031 65.1861 48.2031 63.0871 48.2031 60.9268C48.8385 60.9268 49.4895 60.9268 50.2179 60.9268Z" fill="black"/>
</g>
<defs>
<clipPath id="clip0_34_367">
<rect width="61" height="67" fill="white" transform="translate(0.5625 0.422852)"/>
</clipPath>
</defs>
</svg>
