<svg width="57" height="57" viewBox="0 0 57 57" fill="none" xmlns="http://www.w3.org/2000/svg">
<g clip-path="url(#clip0_34_346)">
<path d="M50.0562 14.8963C50.0562 14.8854 50.0563 14.8854 50.0453 14.8744C49.9906 14.7432 49.9141 14.6338 49.8266 14.5244C49.8266 14.5244 49.8266 14.5135 49.8156 14.5135L45.025 9.52598V5.52285C45.025 3.00723 42.9797 0.961914 40.4641 0.961914H11.3812C8.8 0.961914 6.71094 3.06191 6.71094 5.63223V47.9057C6.71094 50.4869 8.81094 52.576 11.3812 52.576H11.8406C12.0484 54.9604 14.0609 56.8416 16.4891 56.8416H45.4516C48.0328 56.8416 50.1219 54.7416 50.1219 52.1713V15.301C50.1328 15.1588 50.1 15.0166 50.0562 14.8963ZM41.5359 9.19785L46.3156 14.1635H41.5359V9.19785ZM8.99688 47.9166V5.63223C8.99688 4.30879 10.0688 3.23691 11.3922 3.23691H40.475C41.7328 3.23691 42.75 4.2541 42.75 5.51191V7.15254L41.2188 5.57754C41.2188 5.57754 41.2078 5.57754 41.2078 5.5666C41.175 5.53379 41.1312 5.50098 41.0984 5.46816C41.0766 5.45723 41.0656 5.43535 41.0438 5.42441C40.9891 5.38066 40.9234 5.34785 40.8578 5.32598C40.8578 5.32598 40.8578 5.32598 40.8469 5.32598C40.7047 5.27129 40.5625 5.23848 40.3984 5.23848H16.5C13.9187 5.23848 11.8297 7.33848 11.8297 9.90879V50.3119H11.3922C10.0688 50.301 8.99688 49.2291 8.99688 47.9166ZM45.4625 54.5666H16.5C15.1766 54.5666 14.1047 53.4947 14.1047 52.1713V9.89785C14.1047 8.57441 15.1766 7.50254 16.5 7.50254H39.25V15.301C39.25 15.9354 39.7641 16.4385 40.3875 16.4385H47.8469V52.1713C47.8469 53.4947 46.775 54.5666 45.4625 54.5666Z" fill="#232323"/>
<path d="M32.4355 16.4493H34.5902C35.2246 16.4493 35.7277 15.9353 35.7277 15.3118C35.7277 14.6774 35.2137 14.1743 34.5902 14.1743H32.4355C31.8012 14.1743 31.298 14.6884 31.298 15.3118C31.2871 15.9353 31.8012 16.4493 32.4355 16.4493Z" fill="#232323"/>
<path d="M19.0488 16.4493H26.2457C26.88 16.4493 27.3832 15.9353 27.3832 15.3118C27.3832 14.6774 26.8691 14.1743 26.2457 14.1743H19.0488C18.4144 14.1743 17.9113 14.6884 17.9113 15.3118C17.9004 15.9353 18.4144 16.4493 19.0488 16.4493Z" fill="#232323"/>
<path d="M42.0715 43.1367H26.2449C25.6105 43.1367 25.1074 43.6508 25.1074 44.2742C25.1074 44.8977 25.6215 45.4117 26.2449 45.4117H42.0715C42.7059 45.4117 43.209 44.8977 43.209 44.2742C43.209 43.6508 42.7059 43.1367 42.0715 43.1367Z" fill="#232323"/>
<path d="M21.8377 43.1367H19.0486C18.4143 43.1367 17.9111 43.6508 17.9111 44.2742C17.9111 44.8977 18.4252 45.4117 19.0486 45.4117H21.8377C22.4721 45.4117 22.9752 44.8977 22.9752 44.2742C22.9752 43.6508 22.4721 43.1367 21.8377 43.1367Z" fill="#232323"/>
<path d="M42.0723 36.0059H37.7957C37.1613 36.0059 36.6582 36.5199 36.6582 37.1434C36.6582 37.7668 37.1723 38.2809 37.7957 38.2809H42.0723C42.7066 38.2809 43.2098 37.7668 43.2098 37.1434C43.2098 36.5199 42.7066 36.0059 42.0723 36.0059Z" fill="#232323"/>
<path d="M19.0486 38.2916H31.6705C32.3049 38.2916 32.808 37.7775 32.808 37.1541C32.808 36.5307 32.2939 36.0166 31.6705 36.0166H19.0486C18.4143 36.0166 17.9111 36.5307 17.9111 37.1541C17.9111 37.7775 18.4143 38.2916 19.0486 38.2916Z" fill="#232323"/>
<path d="M42.0717 28.8633H33.5076C32.8732 28.8633 32.3701 29.3773 32.3701 30.0008C32.3701 30.6242 32.8842 31.1383 33.5076 31.1383H42.0717C42.7061 31.1383 43.2092 30.6242 43.2092 30.0008C43.2092 29.3773 42.7061 28.8633 42.0717 28.8633Z" fill="#232323"/>
<path d="M19.0488 31.1495H27.766C28.4004 31.1495 28.9035 30.6354 28.9035 30.012C28.9035 29.3886 28.3895 28.8745 27.766 28.8745H19.0379C18.4035 28.8745 17.9004 29.3886 17.9004 30.012C17.9004 30.6354 18.4145 31.1495 19.0488 31.1495Z" fill="#232323"/>
<path d="M42.0715 21.5137H26.2449C25.6105 21.5137 25.1074 22.0277 25.1074 22.6512C25.1074 23.2855 25.6215 23.7887 26.2449 23.7887H42.0715C42.7059 23.7887 43.209 23.2746 43.209 22.6512C43.209 22.0277 42.7059 21.5137 42.0715 21.5137Z" fill="#232323"/>
<path d="M19.0488 23.7994H21.1051C21.7394 23.7994 22.2426 23.2854 22.2426 22.6619C22.2426 22.0275 21.7285 21.5244 21.1051 21.5244H19.0488C18.4144 21.5244 17.9113 22.0385 17.9113 22.6619C17.9004 23.2854 18.4144 23.7994 19.0488 23.7994Z" fill="#232323"/>
</g>
<defs>
<clipPath id="clip0_34_346">
<rect width="56" height="56" fill="white" transform="translate(0.421875 0.797852)"/>
</clipPath>
</defs>
</svg>
