<svg width="92" height="41" viewBox="0 0 92 41" fill="none" xmlns="http://www.w3.org/2000/svg">
<path d="M76.6787 31.8065H83.5057C87.3761 31.8065 89.6876 29.1247 90.2789 25.5112C90.3804 24.9019 90.4282 24.2688 90.4282 23.6178V21.7184C90.4282 21.1928 90.3685 20.6851 90.261 20.1954C89.5681 17.1074 86.8087 14.7959 83.5116 14.7959L68.4123 12.5083L55.0272 5.27521C54.2567 4.85711 53.5101 4.40318 52.7754 3.9373C50.5595 2.52174 47.9733 1.76318 45.3273 1.76318H31.4226C23.0785 1.76318 17.2012 6.92969 12.7395 14.7959H5.59603C3.43386 14.7959 1.67188 16.5639 1.67188 18.726V23.3012C1.67188 27.978 5.36906 31.8065 11.1687 31.8065" stroke="#343A4B" stroke-width="2" stroke-miterlimit="10" stroke-linecap="round" stroke-linejoin="round"/>
<path d="M26.4355 31.8066H61.4125" stroke="#343A4B" stroke-width="2" stroke-miterlimit="10" stroke-linecap="round" stroke-linejoin="round"/>
<path d="M76.6787 31.8066C76.6787 36.0234 73.2622 39.4399 69.0454 39.4399C64.8286 39.4399 61.4121 36.0234 61.4121 31.8066C61.4121 27.5898 64.8286 24.1733 69.0454 24.1733C73.2622 24.1733 76.6787 27.5898 76.6787 31.8066Z" stroke="#343A4B" stroke-width="2" stroke-miterlimit="10" stroke-linecap="round" stroke-linejoin="round"/>
<path d="M18.8022 39.4399C23.018 39.4399 26.4355 36.0224 26.4355 31.8066C26.4355 27.5909 23.018 24.1733 18.8022 24.1733C14.5865 24.1733 11.1689 27.5909 11.1689 31.8066C11.1689 36.0224 14.5865 39.4399 18.8022 39.4399Z" stroke="#343A4B" stroke-width="2" stroke-miterlimit="10" stroke-linecap="round" stroke-linejoin="round"/>
<path d="M39.0024 6.21289H31.2138C30.6643 6.21289 29.9237 6.35624 29.0875 6.58918C25.3843 7.63443 22.171 9.89813 19.961 12.9562L18.635 14.7899C18.4379 15.0646 18.635 15.4529 18.9755 15.4529H58.4081C59.8655 15.4529 60.3792 13.5834 59.1129 12.8845L48.2902 6.8938C47.4838 6.44583 46.57 6.21289 45.6442 6.21289H39.0024Z" stroke="#343A4B" stroke-width="2" stroke-miterlimit="10" stroke-linecap="round" stroke-linejoin="round"/>
<path d="M39.002 6.21289V15.4469" stroke="#343A4B" stroke-width="2" stroke-miterlimit="10" stroke-linecap="round" stroke-linejoin="round"/>
<path d="M39.002 20.7871V31.807" stroke="#343A4B" stroke-width="2" stroke-miterlimit="10" stroke-linecap="round" stroke-linejoin="round"/>
<path d="M90.2851 25.5111H82.2158V20.1953H90.2612" stroke="#343A4B" stroke-width="2" stroke-miterlimit="10" stroke-linecap="round" stroke-linejoin="round"/>
</svg>
