<svg width="47" height="47" viewBox="0 0 47 47" fill="none" xmlns="http://www.w3.org/2000/svg">
<path d="M28.7976 27.8737L39.3063 27.8737C39.5339 27.8737 39.7563 27.9413 39.9454 28.0678C40.1346 28.1943 40.2819 28.3741 40.3688 28.5844C40.4558 28.7947 40.4783 29.026 40.4337 29.2492C40.3891 29.4723 40.2793 29.6772 40.1182 29.8379L29.6118 40.3443C29.4511 40.5054 29.2462 40.6152 29.0231 40.6598C28.7999 40.7044 28.5686 40.6818 28.3583 40.5949C28.148 40.508 27.9682 40.3606 27.8417 40.1715C27.7152 39.9823 27.6476 39.7599 27.6476 39.5324L27.6476 29.0237C27.6476 28.7187 27.7688 28.4262 27.9844 28.2105C28.2001 27.9948 28.4926 27.8737 28.7976 27.8737ZM36.5302 30.1737L29.9476 30.1737L29.9476 36.7563L36.5302 30.1737Z" fill="#FFDE52"/>
<path d="M21.7028 10.6237L39.307 10.6237C39.612 10.6237 39.9045 10.7448 40.1202 10.9605C40.3359 11.1762 40.457 11.4687 40.457 11.7737L40.457 29.0237C40.457 29.3287 40.3359 29.6212 40.1202 29.8368C39.9045 30.0525 39.612 30.1737 39.307 30.1737C39.002 30.1737 38.7095 30.0525 38.4939 29.8368C38.2782 29.6212 38.157 29.3287 38.157 29.0237L38.157 12.9237L21.7028 12.9237C20.8401 12.9249 20.013 13.2682 19.4029 13.8782C18.7928 14.4883 18.4495 15.3154 18.4483 16.1782L18.4483 38.3824L28.7983 38.3824C29.1033 38.3824 29.3958 38.5035 29.6115 38.7192C29.8272 38.9349 29.9483 39.2274 29.9483 39.5324C29.9483 39.8374 29.8272 40.1299 29.6115 40.3455C29.3958 40.5612 29.1033 40.6824 28.7983 40.6824L17.2983 40.6824C16.9933 40.6824 16.7008 40.5612 16.4852 40.3455C16.2695 40.1299 16.1483 39.8374 16.1483 39.5324L16.1483 16.1782C16.1495 14.7054 16.7351 13.2933 17.7766 12.2519C18.818 11.2105 20.2301 10.6249 21.7028 10.6237Z" fill="#FFDE52"/>
<path d="M11.194 5.865L28.7982 5.865C29.1032 5.865 29.3958 5.98616 29.6114 6.20183C29.8271 6.4175 29.9482 6.71 29.9482 7.015L29.9482 11.7737C29.9482 12.0787 29.8271 12.3712 29.6114 12.5869C29.3958 12.8025 29.1032 12.9237 28.7982 12.9237C28.4932 12.9237 28.2007 12.8025 27.9851 12.5869C27.7694 12.3712 27.6482 12.0787 27.6482 11.7737L27.6482 8.165L11.194 8.165C10.3313 8.16622 9.50418 8.50949 8.89411 9.11957C8.28403 9.72964 7.94076 10.5567 7.93954 11.4195L7.93954 33.6674L17.2982 33.6674C17.6032 33.6674 17.8957 33.7886 18.1114 34.0042C18.3271 34.2199 18.4482 34.5124 18.4482 34.8174C18.4482 35.1224 18.3271 35.4149 18.1114 35.6306C17.8957 35.8462 17.6032 35.9674 17.2982 35.9674L6.78954 35.9674C6.48454 35.9674 6.19203 35.8462 5.97637 35.6306C5.7607 35.4149 5.63954 35.1224 5.63954 34.8174L5.63954 11.4195C5.64076 9.94673 6.22636 8.53463 7.26776 7.49322C8.30917 6.45181 9.72127 5.86622 11.194 5.865Z" fill="#FFDE52"/>
<path d="M23.0482 22.1237L34.5482 22.1237C34.8532 22.1237 35.1457 22.2449 35.3614 22.4605C35.5771 22.6762 35.6982 22.9687 35.6982 23.2737C35.6982 23.5787 35.5771 23.8712 35.3614 24.0869C35.1457 24.3025 34.8532 24.4237 34.5482 24.4237L23.0482 24.4237C22.7432 24.4237 22.4507 24.3025 22.2351 24.0869C22.0194 23.8712 21.8982 23.5787 21.8982 23.2737C21.8982 22.9687 22.0194 22.6762 22.2351 22.4605C22.4507 22.2449 22.7432 22.1237 23.0482 22.1237Z" fill="#FFDE52"/>
<path d="M23.0482 16.3943L34.5482 16.3943C34.8532 16.3943 35.1457 16.5155 35.3614 16.7312C35.5771 16.9468 35.6982 17.2393 35.6982 17.5443C35.6982 17.8493 35.5771 18.1418 35.3614 18.3575C35.1457 18.5732 34.8532 18.6943 34.5482 18.6943L23.0482 18.6943C22.7432 18.6943 22.4507 18.5732 22.2351 18.3575C22.0194 18.1418 21.8982 17.8493 21.8982 17.5443C21.8982 17.2393 22.0194 16.9468 22.2351 16.7312C22.4507 16.5155 22.7432 16.3943 23.0482 16.3943Z" fill="#FFDE52"/>
<path d="M11.5482 16.3943L17.2982 16.3943C17.6032 16.3943 17.8957 16.5155 18.1114 16.7312C18.3271 16.9468 18.4482 17.2393 18.4482 17.5443C18.4482 17.8493 18.3271 18.1418 18.1114 18.3575C17.8957 18.5732 17.6032 18.6943 17.2982 18.6943L11.5482 18.6943C11.2432 18.6943 10.9507 18.5732 10.7351 18.3575C10.5194 18.1418 10.3982 17.8493 10.3982 17.5443C10.3982 17.2393 10.5194 16.9468 10.7351 16.7312C10.9507 16.5155 11.2432 16.3943 11.5482 16.3943Z" fill="#FFDE52"/>
<path d="M11.5482 22.1237L17.2982 22.1237C17.6032 22.1237 17.8957 22.2449 18.1114 22.4605C18.3271 22.6762 18.4482 22.9687 18.4482 23.2737C18.4482 23.5787 18.3271 23.8712 18.1114 24.0869C17.8957 24.3025 17.6032 24.4237 17.2982 24.4237L11.5482 24.4237C11.2432 24.4237 10.9507 24.3025 10.7351 24.0869C10.5194 23.8712 10.3982 23.5787 10.3982 23.2737C10.3982 22.9687 10.5194 22.6762 10.7351 22.4605C10.9507 22.2449 11.2432 22.1237 11.5482 22.1237Z" fill="#FFDE52"/>
</svg>
