<svg width="47" height="47" viewBox="0 0 47 47" fill="none" xmlns="http://www.w3.org/2000/svg">
<path d="M29.5574 27.85L40.0661 27.85C40.2936 27.85 40.516 27.9176 40.7052 28.0441C40.8943 28.1706 41.0417 28.3504 41.1286 28.5607C41.2155 28.771 41.2381 29.0023 41.1935 29.2255C41.1489 29.4486 41.0391 29.6535 40.878 29.8142L30.3716 40.3206C30.2109 40.4817 30.006 40.5915 29.7828 40.6361C29.5597 40.6807 29.3284 40.6582 29.1181 40.5712C28.9078 40.4843 28.728 40.3369 28.6015 40.1478C28.475 39.9587 28.4074 39.7362 28.4074 39.5087L28.4074 29C28.4074 28.695 28.5285 28.4025 28.7442 28.1868C28.9599 27.9711 29.2524 27.85 29.5574 27.85ZM37.29 30.15L30.7074 30.15L30.7074 36.7326L37.29 30.15Z" fill="#FFDE52"/>
<path d="M22.4626 10.6L40.0668 10.6C40.3718 10.6 40.6643 10.7211 40.88 10.9368C41.0956 11.1525 41.2168 11.445 41.2168 11.75L41.2168 29C41.2168 29.305 41.0956 29.5975 40.88 29.8132C40.6643 30.0288 40.3718 30.15 40.0668 30.15C39.7618 30.15 39.4693 30.0288 39.2536 29.8132C39.038 29.5975 38.9168 29.305 38.9168 29L38.9168 12.9L22.4626 12.9C21.5998 12.9012 20.7727 13.2445 20.1627 13.8546C19.5526 14.4646 19.2093 15.2917 19.2081 16.1545L19.2081 38.3587L29.5581 38.3587C29.8631 38.3587 30.1556 38.4799 30.3713 38.6955C30.5869 38.9112 30.7081 39.2037 30.7081 39.5087C30.7081 39.8137 30.5869 40.1062 30.3713 40.3219C30.1556 40.5375 29.8631 40.6587 29.5581 40.6587L18.0581 40.6587C17.7531 40.6587 17.4606 40.5375 17.2449 40.3219C17.0293 40.1062 16.9081 39.8137 16.9081 39.5087L16.9081 16.1545C16.9093 14.6817 17.4949 13.2696 18.5363 12.2282C19.5777 11.1868 20.9898 10.6012 22.4626 10.6Z" fill="#FFDE52"/>
<path d="M11.9538 5.8412L29.558 5.8412C29.863 5.8412 30.1555 5.96236 30.3712 6.17802C30.5869 6.39369 30.708 6.6862 30.708 6.9912L30.708 11.7499C30.708 12.0549 30.5869 12.3474 30.3712 12.5631C30.1555 12.7787 29.863 12.8999 29.558 12.8999C29.253 12.8999 28.9605 12.7787 28.7448 12.5631C28.5292 12.3474 28.408 12.0549 28.408 11.7499L28.408 8.1412L11.9538 8.1412C11.091 8.14241 10.2639 8.48569 9.65387 9.09576C9.0438 9.70584 8.70052 10.5329 8.69931 11.3957L8.6993 33.6436L18.058 33.6436C18.363 33.6436 18.6555 33.7648 18.8712 33.9804C19.0868 34.1961 19.208 34.4886 19.208 34.7936C19.208 35.0986 19.0868 35.3911 18.8712 35.6068C18.6555 35.8224 18.363 35.9436 18.058 35.9436L7.5493 35.9436C7.24431 35.9436 6.9518 35.8224 6.73613 35.6068C6.52046 35.3911 6.39931 35.0986 6.39931 34.7936L6.39931 11.3957C6.40053 9.92293 6.98612 8.51082 8.02753 7.46942C9.06894 6.42801 10.481 5.84241 11.9538 5.8412Z" fill="#FFDE52"/>
<path d="M23.808 22.0999L35.308 22.0999C35.613 22.0999 35.9055 22.2211 36.1212 22.4367C36.3368 22.6524 36.458 22.9449 36.458 23.2499C36.458 23.5549 36.3368 23.8474 36.1212 24.0631C35.9055 24.2787 35.613 24.3999 35.308 24.3999L23.808 24.3999C23.503 24.3999 23.2105 24.2787 22.9948 24.0631C22.7792 23.8474 22.658 23.5549 22.658 23.2499C22.658 22.9449 22.7792 22.6524 22.9948 22.4367C23.2105 22.2211 23.503 22.0999 23.808 22.0999Z" fill="#FFDE52"/>
<path d="M23.808 16.3707L35.308 16.3707C35.613 16.3707 35.9055 16.4918 36.1212 16.7075C36.3368 16.9231 36.458 17.2157 36.458 17.5207C36.458 17.8257 36.3368 18.1182 36.1212 18.3338C35.9055 18.5495 35.613 18.6707 35.308 18.6707L23.808 18.6707C23.503 18.6707 23.2105 18.5495 22.9948 18.3338C22.7792 18.1182 22.658 17.8257 22.658 17.5207C22.658 17.2157 22.7792 16.9231 22.9948 16.7075C23.2105 16.4918 23.503 16.3707 23.808 16.3707Z" fill="#FFDE52"/>
<path d="M12.308 16.3707L18.058 16.3707C18.363 16.3707 18.6555 16.4918 18.8712 16.7075C19.0868 16.9231 19.208 17.2157 19.208 17.5207C19.208 17.8257 19.0868 18.1182 18.8712 18.3338C18.6555 18.5495 18.363 18.6707 18.058 18.6707L12.308 18.6707C12.003 18.6707 11.7105 18.5495 11.4948 18.3338C11.2792 18.1182 11.158 17.8257 11.158 17.5207C11.158 17.2157 11.2792 16.9231 11.4948 16.7075C11.7105 16.4918 12.003 16.3707 12.308 16.3707Z" fill="#FFDE52"/>
<path d="M12.308 22.0999L18.058 22.0999C18.363 22.0999 18.6555 22.2211 18.8712 22.4367C19.0868 22.6524 19.208 22.9449 19.208 23.2499C19.208 23.5549 19.0868 23.8474 18.8712 24.0631C18.6555 24.2787 18.363 24.3999 18.058 24.3999L12.308 24.3999C12.003 24.3999 11.7105 24.2787 11.4948 24.0631C11.2792 23.8474 11.158 23.5549 11.158 23.2499C11.158 22.9449 11.2792 22.6524 11.4948 22.4367C11.7105 22.2211 12.003 22.0999 12.308 22.0999Z" fill="#FFDE52"/>
</svg>
