<svg width="35" height="35" viewBox="0 0 35 35" fill="none" xmlns="http://www.w3.org/2000/svg">
<circle cx="18.8743" cy="16.7034" r="14.3127" stroke="#FFDE52" stroke-width="3"/>
<path d="M24.2165 26.066C22.6247 26.066 21.0617 25.8171 19.5806 25.3276C18.8548 25.0801 17.9626 25.3071 17.5197 25.7621L14.5962 27.969C11.2059 26.1592 9.11748 24.0715 7.33242 20.7066L9.47437 17.8593C10.0309 17.3035 10.2305 16.4917 9.99132 15.73C9.49976 14.2411 9.25005 12.6789 9.25005 11.0864C9.25012 9.93593 8.31419 9 7.16382 9H2.38903C1.23867 9 0.302734 9.93593 0.302734 11.0863C0.302734 24.2725 11.0303 35 24.2165 35C25.3669 35 26.3028 34.0641 26.3028 32.9137V28.1523C26.3027 27.002 25.3668 26.066 24.2165 26.066Z" fill="#FFDE52"/>
<path d="M19.1317 19.152V21H11.7257V19.53L15.5057 15.96C15.907 15.5773 16.1777 15.2507 16.3177 14.98C16.4577 14.7 16.5277 14.4247 16.5277 14.154C16.5277 13.762 16.3923 13.4633 16.1217 13.258C15.8603 13.0433 15.473 12.936 14.9597 12.936C14.5303 12.936 14.143 13.02 13.7977 13.188C13.4523 13.3467 13.163 13.5893 12.9297 13.916L11.2777 12.852C11.6603 12.2827 12.1877 11.8393 12.8597 11.522C13.5317 11.1953 14.3017 11.032 15.1697 11.032C15.8977 11.032 16.5323 11.1533 17.0737 11.396C17.6243 11.6293 18.049 11.9653 18.3477 12.404C18.6557 12.8333 18.8097 13.342 18.8097 13.93C18.8097 14.462 18.6977 14.9613 18.4737 15.428C18.2497 15.8947 17.8157 16.4267 17.1717 17.024L14.9177 19.152H19.1317ZM28.9048 18.942H27.3088V21H25.0968V18.942H19.8188V17.416L24.4388 11.2H26.8188L22.5348 17.094H25.1668V15.26H27.3088V17.094H28.9048V18.942Z" fill="#FFDE52"/>
</svg>
