<svg width="52" height="42" viewBox="0 0 52 42" fill="none" xmlns="http://www.w3.org/2000/svg">
<path d="M9.16175 0.398054C7.95209 0.398054 6.94361 1.41772 6.94361 2.64089V3.76026C6.94361 4.98345 7.95209 6.00309 9.16175 6.00309V13.8599C8.39006 13.8599 7.59098 13.8599 6.8288 13.8599C6.26545 13.8599 5.8294 14.4001 5.8302 14.9769V17.2199H4.72546C4.18268 17.2188 3.71729 17.614 3.62722 18.1551L2.5918 24.4765C1.82328 25.1079 1.11756 25.8331 0.507955 26.6581C-0.465383 27.8677 1.41434 29.2863 2.2842 27.9986C4.64238 24.8073 8.62582 23.3237 12.4695 24.1983C16.3173 25.0738 19.2897 28.118 20.0683 32.0222C20.1712 32.5443 20.6228 32.9214 21.1493 32.9248H31.341C31.6405 32.9247 31.9272 32.8022 32.136 32.5852C33.368 31.3443 35.1122 30.6771 36.8994 30.6817C38.7002 30.6851 40.4147 31.3322 41.6411 32.5852C41.8494 32.8018 42.1352 32.9237 42.4339 32.9248H50.1953C50.9831 32.9248 51.3022 32.4726 51.3022 31.7988V29.5558C51.31 28.9262 50.8028 28.4139 50.1801 28.4212C49.5667 28.4247 49.0747 28.9356 49.0818 29.5558V30.6817H46.8724V20.582C46.8724 19.7061 46.5725 18.7098 45.8738 17.7827C45.1787 16.8605 43.9711 16.0805 42.4339 16.1027V11.6146C42.4339 10.3914 41.4254 9.3717 40.2158 9.3717V8.71028L40.9934 7.92388C41.724 7.2124 41.2058 5.96385 40.1919 5.99426C39.9042 6.00115 39.6301 6.1248 39.4295 6.33386L38.3161 7.45091C38.1097 7.66238 37.9957 7.9488 37.9976 8.24603V9.37181C36.7879 9.37181 35.7794 10.3915 35.7794 11.6147V16.1028H32.1165L28.4839 6.00298H29.1229C30.3326 6.00298 31.341 4.98328 31.341 3.76005V2.64089C31.341 1.41769 30.3326 0.397949 29.1229 0.397949L9.16175 0.398054ZM9.16175 2.64089H29.1229V3.76026H9.16175V2.64089ZM11.3821 6.00309H26.1293L29.7706 16.1225C28.524 16.1903 27.2885 16.5256 26.1899 17.1542L25.1133 16.0699L25.1155 16.0677C25.5297 15.3079 24.9703 14.3806 24.1126 14.4053C23.8245 14.4122 23.551 14.5358 23.3501 14.7449L22.2367 15.8619C21.3374 16.7744 22.4163 18.2506 23.5429 17.6492L24.4332 18.5539C23.9117 19.1262 23.4705 19.7961 23.14 20.558C19.8759 20.4389 18.155 19.0619 17.1203 17.6668C16.0382 16.2079 15.8011 14.7952 15.8011 14.7952C15.6535 14.0467 15.1728 13.8599 14.5555 13.8599H11.3821L11.3821 6.00309ZM37.9976 11.6147H40.2158V16.1028H37.9976V11.6147ZM8.04835 16.1028H13.8645C14.1013 16.8494 14.5289 17.9171 15.344 19.016C16.6362 20.7582 18.9561 22.4805 22.5508 22.7659C22.5011 23.149 22.4662 23.5408 22.4662 23.9508C22.4662 25.4464 24.6844 25.4464 24.6844 23.9508C24.6844 21.9883 25.3766 20.6525 26.3957 19.7366C27.4121 18.823 28.8119 18.3394 30.2254 18.3369H40.216V26.1937C40.2182 26.8101 40.7112 27.3087 41.3207 27.3109H44.6545V30.6818H42.8609C41.219 29.1922 39.0804 28.4412 36.9083 28.4367C34.7244 28.4332 32.5628 29.1939 30.9102 30.6818H21.7712C20.5356 26.406 17.3095 22.9953 12.9614 22.0058C10.2651 21.3923 7.50834 21.7389 5.10261 22.8798L5.66581 19.4628H8.04858C9.52769 19.4628 9.52769 17.2199 8.04858 17.2199L8.04835 16.1028ZM42.4339 18.3369C43.7876 18.3369 44.6542 19.3738 44.6542 20.5821V25.068H42.4339L42.4339 18.3369ZM36.8756 20.5667C36.8374 20.5669 36.7989 20.569 36.7607 20.5737C36.1936 20.6402 35.769 21.1311 35.7795 21.7083C34.2668 21.7083 32.7298 21.7083 31.2262 21.7083C29.7485 21.7868 29.8633 24.0297 31.341 23.9511H35.7795C35.8118 25.4136 37.9655 25.4136 37.9976 23.9511V21.7083C38.0085 21.0761 37.5008 20.5596 36.8756 20.5671V20.5667ZM10.2687 26.1937C5.99413 26.1937 2.50732 29.7194 2.50732 34.0417C2.50732 38.364 5.99413 41.8898 10.2687 41.8898C14.5432 41.8898 18.03 38.364 18.03 34.0417C18.03 29.7194 14.5432 26.1937 10.2687 26.1937ZM10.2687 28.4367C11.4095 28.4367 12.4639 28.7839 13.3424 29.3742C12.4868 30.4007 13.8696 31.799 14.8847 30.9337C15.4687 31.822 15.8097 32.8882 15.8097 34.0417C15.8097 35.1947 15.4681 36.2619 14.8847 37.1499C14.6861 36.9811 14.4424 36.8743 14.1807 36.874C13.2178 36.8671 12.7324 38.0011 13.3359 38.714C12.4585 39.3022 11.4071 39.647 10.2687 39.647C9.12952 39.647 8.07476 39.303 7.19705 38.714C7.8128 37.99 7.30143 36.837 6.32192 36.874C6.0716 36.8809 5.84046 36.9884 5.65041 37.1499C5.06707 36.2619 4.72546 35.1947 4.72546 34.0417C4.72546 32.8882 5.06644 31.822 5.65041 30.9337C6.66563 31.799 8.04876 30.4007 7.19272 29.3742C8.07122 28.7837 9.12778 28.4367 10.2687 28.4367ZM10.2687 30.6818C8.44424 30.6818 6.94363 32.1969 6.94361 34.0417C6.94359 35.8865 8.44421 37.404 10.2687 37.404C12.0931 37.404 13.6002 35.8865 13.6002 34.0417C13.6002 32.1969 12.0931 30.6818 10.2687 30.6818ZM10.2687 32.9248C10.8943 32.9248 11.3821 33.409 11.3821 34.0417C11.3821 34.6743 10.8943 35.1589 10.2687 35.1589C9.643 35.1589 9.16175 34.6743 9.16175 34.0417C9.16176 33.4091 9.643 32.9248 10.2687 32.9248ZM36.8842 32.9248C34.4472 32.9248 32.4458 34.9398 32.4458 37.404C32.4457 39.8683 34.4472 41.8898 36.8842 41.8898C39.3212 41.8898 41.3205 39.8683 41.3205 37.404C41.3205 34.9398 39.3212 32.9248 36.8842 32.9248ZM36.8842 35.1589C38.1224 35.1589 39.1024 36.152 39.1024 37.404C39.1024 38.6561 38.1225 39.6469 36.8842 39.6469C35.646 39.6469 34.6661 38.6561 34.6661 37.404C34.6661 36.152 35.646 35.1589 36.8842 35.1589Z" fill="#FFDE52"/>
</svg>
