<svg width="33" height="32" viewBox="0 0 33 32" fill="none" xmlns="http://www.w3.org/2000/svg">
<circle cx="16.4895" cy="15.8127" r="14.3127" stroke="#FFDE52" stroke-width="3"/>
<path d="M15.8929 17.1816L15.8921 17.1809C15.4617 16.7517 15.2207 16.1694 15.2207 15.5616V8.24554C15.2207 7.86123 15.5329 7.54907 15.9172 7.54907C16.3015 7.54907 16.6136 7.86123 16.6136 8.24554H17.1136L16.6136 8.24561V8.24579V8.2461V8.24653V8.24708V8.24776V8.24855V8.24947V8.2505V8.25166V8.25294V8.25433V8.25585V8.25748V8.25923V8.2611V8.26309V8.26519V8.26741V8.26975V8.2722V8.27477V8.27745V8.28024V8.28316V8.28618V8.28932V8.29257V8.29593V8.29941V8.30299V8.30669V8.3105V8.31442V8.31845V8.32259V8.32684V8.3312V8.33566V8.34024V8.34492V8.34971V8.35461V8.35961V8.36472V8.36994V8.37526V8.38068V8.38621V8.39185V8.39759V8.40343V8.40937V8.41542V8.42157V8.42782V8.43418V8.44063V8.44718V8.45384V8.46059V8.46745V8.4744V8.48145V8.4886V8.49585V8.50319V8.51064V8.51817V8.52581V8.53354V8.54137V8.54929V8.5573V8.56541V8.57362V8.58191V8.5903V8.59879V8.60736V8.61603V8.62479V8.63364V8.64258V8.65161V8.66073V8.66994V8.67924V8.68863V8.6981V8.70767V8.71732V8.72706V8.73688V8.7468V8.75679V8.76688V8.77704V8.7873V8.79763V8.80806V8.81856V8.82915V8.83982V8.85057V8.86141V8.87232V8.88332V8.8944V8.90556V8.91679V8.92811V8.93951V8.95098V8.96254V8.97417V8.98588V8.99767V9.00953V9.02147V9.03349V9.04558V9.05774V9.06999V9.0823V9.09469V9.10715V9.11969V9.1323V9.14498V9.15773V9.17056V9.18346V9.19642V9.20946V9.22257V9.23575V9.24899V9.26231V9.27569V9.28914V9.30266V9.31625V9.3299V9.34362V9.35741V9.37126V9.38517V9.39916V9.4132V9.42731V9.44148V9.45572V9.47002V9.48438V9.49881V9.51329V9.52784V9.54245V9.55711V9.57184V9.58663V9.60148V9.61638V9.63135V9.64637V9.66145V9.67659V9.69178V9.70703V9.72234V9.7377V9.75312V9.76859V9.78412V9.7997V9.81534V9.83103V9.84677V9.86256V9.87841V9.89431V9.91025V9.92625V9.9423V9.95841V9.97456V9.99075V10.007V10.0233V10.0396V10.056V10.0725V10.089V10.1055V10.1221V10.1387V10.1554V10.1721V10.1889V10.2057V10.2225V10.2394V10.2563V10.2733V10.2903V10.3074V10.3245V10.3416V10.3588V10.376V10.3933V10.4106V10.428V10.4453V10.4628V10.4802V10.4977V10.5152V10.5328V10.5504V10.568V10.5857V10.6034V10.6212V10.639V10.6568V10.6746V10.6925V10.7104V10.7284V10.7463V10.7643V10.7824V10.8004V10.8185V10.8367V10.8548V10.873V10.8912V10.9095V10.9278V10.9461V10.9644V10.9827V11.0011V11.0195V11.038V11.0564V11.0749V11.0934V11.1119V11.1305V11.1491V11.1676V11.1863V11.2049V11.2236V11.2423V11.261V11.2797V11.2984V11.3172V11.336V11.3548V11.3736V11.3925V11.4113V11.4302V11.4491V11.468V11.4869V11.5058V11.5248V11.5438V11.5628V11.5818V11.6008V11.6198V11.6388V11.6579V11.6769V11.696V11.7151V11.7342V11.7533V11.7724V11.7915V11.8107V11.8298V11.8489V11.8681V11.8873V11.9064V11.9256V11.9448V11.964V11.9832V12.0024V12.0216V12.0408V12.06V12.0793V12.0985V12.1177V12.1369V12.1562V12.1754V12.1946V12.2139V12.2331V12.2523V12.2716V12.2908V12.31V12.3293V12.3485V12.3677V12.3869V12.4062V12.4254V12.4446V12.4638V12.483V12.5022V12.5214V12.5406V12.5598V12.5789V12.5981V12.6173V12.6364V12.6556V12.6747V12.6938V12.7129V12.732V12.7511V12.7702V12.7893V12.8084V12.8274V12.8464V12.8655V12.8845V12.9035V12.9225V12.9414V12.9604V12.9793V12.9983V13.0172V13.0361V13.0549V13.0738V13.0926V13.1115V13.1303V13.149V13.1678V13.1866V13.2053V13.224V13.2427V13.2614V13.28V13.2986V13.3172V13.3358V13.3544V13.3729V13.3914V13.4099V13.4283V13.4468V13.4652V13.4836V13.5019V13.5203V13.5386V13.5568V13.5751V13.5933V13.6115V13.6297V13.6478V13.6659V13.684V13.702V13.72V13.738V13.7559V13.7739V13.7917V13.8096V13.8274V13.8452V13.8629V13.8807V13.8983V13.916V13.9336V13.9512V13.9687V13.9862V14.0037V14.0211V14.0385V14.0558V14.0731V14.0904V14.1076V14.1248V14.142V14.1591V14.1761V14.1932V14.2101V14.2271V14.244V14.2608V14.2776V14.2944V14.3111V14.3278V14.3444V14.361V14.3775V14.394V14.4105V14.4269V14.4432V14.4595V14.4758V14.492V14.5082V14.5243V14.5403V14.5563V14.5723V14.5882V14.604V14.6198V14.6356V14.6513V14.6669V14.6825V14.698V14.7135V14.7289V14.7443V14.7596V14.7749V14.7901V14.8052V14.8203V14.8353V14.8503V14.8652V14.8801V14.8949V14.9096V14.9243V14.9389V14.9535V14.9679V14.9824V14.9967V15.011V15.0253V15.0395V15.0536V15.0676V15.0816V15.0956V15.1094V15.1232V15.1369V15.1506V15.1642V15.1777V15.1912V15.2046V15.2179V15.2311V15.2443V15.2574V15.2705V15.2835V15.2964V15.3092V15.322V15.3347V15.3473V15.3598V15.3723V15.3847V15.397V15.4093V15.4214V15.4335V15.4456V15.4575V15.4694V15.4812V15.4929V15.5045V15.5161V15.5276V15.539V15.5503V15.5616C16.6136 15.7973 16.7063 16.0273 16.8765 16.1975L16.8768 16.1977C17.4788 16.799 18.5583 17.8785 19.4874 18.8077L20.6896 20.0103L21.0588 20.3796L21.1597 20.4806L21.186 20.5069L21.1927 20.5136L21.1944 20.5153L21.1948 20.5157L21.1949 20.5158L21.5486 20.1624L21.1949 20.5159L21.1956 20.5166C21.467 20.787 21.467 21.2288 21.1956 21.4992L21.1944 21.5005C20.924 21.7718 20.4821 21.7718 20.2117 21.5005L20.211 21.4998L19.8576 21.8534L20.211 21.4997L20.2109 21.4996L20.2104 21.4992L20.2088 21.4975L20.202 21.4908L20.1757 21.4645L20.0748 21.3636L19.7054 20.9944L18.5029 19.7923C17.5736 18.8632 16.4941 17.7837 15.8929 17.1816Z" fill="#FFDE52" stroke="#FFDE52"/>
</svg>
