<svg width="43" height="43" viewBox="0 0 43 43" fill="none" xmlns="http://www.w3.org/2000/svg">
<path d="M36.111 36.5159C36.111 40.0972 33.275 43 29.7777 43H13.7777C10.2797 43 7.44434 40.0972 7.44434 36.5159V6.48413C7.44434 2.90284 10.2797 0 13.7777 0H29.7777C33.275 0 36.111 2.90284 36.111 6.48413V36.5159ZM34.111 6.48413C34.111 4.03381 32.171 2.04762 29.7777 2.04762H13.7777C11.3843 2.04762 9.44434 4.03381 9.44434 6.48413V36.5159C9.44434 38.9662 11.3843 40.9524 13.7777 40.9524H29.7777C32.171 40.9524 34.111 38.9662 34.111 36.5159V6.48413Z" fill="#FFDE52"/>
<path d="M36.111 35.1507C36.111 35.7158 35.663 36.1745 35.111 36.1745H8.44434C7.89167 36.1745 7.44434 35.7158 7.44434 35.1507V6.48401C7.44434 5.91887 7.89167 5.46021 8.44434 5.46021H35.111C35.663 5.46021 36.111 5.91887 36.111 6.48401V35.1507ZM9.44434 34.1269H34.111V7.50782H9.44434V34.1269Z" fill="#FFDE52"/>
<path d="M23.7819 4.01596C23.7819 4.76948 23.1852 5.38104 22.4486 5.38104C21.7126 5.38104 21.1152 4.76948 21.1152 4.01596C21.1152 3.26175 21.7126 2.65088 22.4486 2.65088C23.1852 2.65088 23.7819 3.26175 23.7819 4.01596Z" fill="#FFDE52"/>
<path d="M23.8265 39.5874H20.4932C19.9412 39.5874 19.4932 39.1287 19.4932 38.5636C19.4932 37.9985 19.9412 37.5398 20.4932 37.5398H23.8265C24.3785 37.5398 24.8265 37.9985 24.8265 38.5636C24.8265 39.1287 24.3785 39.5874 23.8265 39.5874Z" fill="#FFDE52"/>
</svg>
