<svg width="32" height="37" viewBox="0 0 32 37" fill="none" xmlns="http://www.w3.org/2000/svg">
<g clip-path="url(#clip0_34_191)">
<path d="M0.807617 18.2902C0.807617 15.1764 0.807617 12.0626 0.807617 8.94884C0.818344 8.90633 0.82907 8.86914 0.834434 8.82663C1.01142 7.00404 2.41661 5.46308 4.25087 5.1177C5.73651 4.84139 7.16852 4.40567 8.55225 3.81585C10.0701 3.16759 11.4914 2.36522 12.8805 1.48316C14.1301 0.691422 15.5138 0.388544 16.9888 0.537326C18.0453 0.643599 19.0054 1.02087 19.9064 1.5788C20.7377 2.09423 21.5798 2.59371 22.4486 3.05068C24.2882 4.01246 26.2137 4.72449 28.2678 5.09644C30.3434 5.47371 31.8237 7.24316 31.8076 9.34737C31.7862 12.1583 31.8076 14.9692 31.7969 17.7801C31.7969 18.3806 31.754 18.981 31.6789 19.5762C31.4644 21.3137 30.9334 22.9503 30.145 24.5179C29.2332 26.3298 28.0372 27.9452 26.6266 29.4064C23.9074 32.228 20.727 34.4012 17.1979 36.1069C16.9137 36.2451 16.6187 36.3726 16.3291 36.5001C16.3076 36.5001 16.2915 36.5001 16.2701 36.5001C16.2325 36.4789 16.2004 36.4576 16.1574 36.4417C15.2135 36.0432 14.3017 35.5809 13.4114 35.0761C10.585 33.4714 7.98911 31.5638 5.76869 29.1886C4.32596 27.6423 3.10848 25.9472 2.21817 24.029C1.45658 22.3924 0.984607 20.6761 0.84516 18.8747C0.84516 18.6781 0.823707 18.4815 0.807617 18.2902ZM28.9007 13.7577C28.9007 12.2646 28.9007 10.7767 28.9007 9.2836C28.9007 8.55563 28.4234 7.98707 27.6993 7.85954C26.4389 7.63637 25.2107 7.28567 24.0147 6.83932C21.982 6.07947 20.0834 5.06987 18.2599 3.9115C16.9727 3.09319 15.6587 3.10913 14.3554 3.90618C13.996 4.12404 13.642 4.35784 13.2773 4.5757C10.6815 6.10604 7.95692 7.30692 4.96419 7.8436C4.30987 7.9605 3.69308 8.49718 3.70381 9.36862C3.72526 12.1264 3.71454 14.8895 3.70917 17.6473C3.70381 19.4433 4.08997 21.149 4.83547 22.7803C5.62388 24.5179 6.72872 26.0376 8.04274 27.4138C10.4026 29.89 13.1808 31.8029 16.2325 33.3545C16.2754 33.3757 16.3505 33.3757 16.3988 33.3545C19.1019 31.9888 21.5959 30.315 23.7894 28.2268C25.2054 26.8771 26.4389 25.3893 27.3668 23.6624C28.3912 21.7601 28.9382 19.7356 28.9168 17.5676C28.89 16.2923 28.9007 15.0223 28.9007 13.7577Z" fill="#FFDE52"/>
<path d="M14.9134 24.6399C12.6286 22.5251 10.3546 20.4208 8.06445 18.306C8.72951 17.6259 9.38919 16.9563 10.0596 16.2656C11.6203 17.7109 13.1811 19.1509 14.7472 20.6015C17.5629 17.5568 20.3733 14.5174 23.189 11.4727C23.9131 12.105 24.621 12.7214 25.3451 13.3537C21.8696 17.1158 18.3942 20.8778 14.9134 24.6399Z" fill="#FFDE52"/>
</g>
<defs>
<clipPath id="clip0_34_191">
<rect width="31" height="36" fill="white" transform="translate(0.807617 0.5)"/>
</clipPath>
</defs>
</svg>
