<svg width="21" height="23" viewBox="0 0 21 23" fill="none" xmlns="http://www.w3.org/2000/svg">
<path d="M1.42972 19.4425H4.87528V22.4437C4.87528 22.5903 4.92195 22.711 5.0153 22.8015C5.10866 22.8964 5.22747 22.9438 5.3675 22.9438H7.93469C8.06623 22.9438 8.18504 22.8964 8.28264 22.8015C8.38023 22.7067 8.42691 22.5903 8.42691 22.4437V19.4425H16.1921C16.3364 19.4425 16.4552 19.395 16.5443 19.3002C16.6377 19.2053 16.6844 19.0846 16.6844 18.9423V16.9415C16.6844 16.7949 16.6377 16.6741 16.5443 16.5836C16.451 16.4887 16.3322 16.4413 16.1921 16.4413H8.42691V14.5957H13.6546C15.7042 14.5957 17.376 13.9619 18.6745 12.6898C19.9729 11.4221 20.6179 9.77921 20.6179 7.7698C20.6179 5.76039 19.9687 4.12182 18.6745 2.84977C17.376 1.57772 15.6999 0.943848 13.6504 0.943848H5.36325C5.22323 0.943848 5.10441 0.99128 5.01106 1.08614C4.91771 1.18101 4.87103 1.30175 4.87103 1.44404V11.2712H1.42972C1.28545 11.2712 1.16664 11.3186 1.07753 11.4178C0.984176 11.517 0.9375 11.6334 0.9375 11.7714V14.0999C0.9375 14.2465 0.984176 14.3672 1.07753 14.4578C1.17088 14.5526 1.28545 14.6001 1.42972 14.6001H4.87528V16.4456H1.42972C1.28545 16.4456 1.16664 16.493 1.07753 16.5879C0.984176 16.6828 0.9375 16.8035 0.9375 16.9458V18.9466C0.9375 19.0932 0.984176 19.2139 1.07753 19.3045C1.16664 19.395 1.28545 19.4425 1.42972 19.4425ZM8.42267 4.27274H13.3406C14.4269 4.27274 15.301 4.59614 15.9715 5.24295C16.6377 5.88975 16.9687 6.7306 16.9687 7.77411C16.9687 8.81762 16.6334 9.65847 15.9715 10.3053C15.3053 10.9521 14.4269 11.2755 13.3406 11.2755H8.42267V4.27274Z" fill="#FFDE52"/>
</svg>
