<svg width="59" height="27" viewBox="0 0 59 27" fill="none" xmlns="http://www.w3.org/2000/svg">
<path d="M48.8356 20.6562H53.168C55.6242 20.6562 57.0911 18.9543 57.4664 16.6611C57.5308 16.2745 57.5612 15.8727 57.5612 15.4595V14.2542C57.5612 13.9206 57.5233 13.5984 57.455 13.2876C57.0153 11.328 55.2642 9.86105 53.1718 9.86105L43.5896 8.40932L35.0953 3.81911C34.6063 3.55378 34.1325 3.2657 33.6663 2.97005C32.26 2.07172 30.6188 1.59033 28.9396 1.59033H20.1155C14.8203 1.59033 11.0905 4.86906 8.25902 9.86105H3.72567C2.35353 9.86105 1.23535 10.983 1.23535 12.3552V15.2586C1.23535 18.2265 3.58163 20.6562 7.26214 20.6562" stroke="#FFDE52" stroke-width="2" stroke-miterlimit="10" stroke-linecap="round" stroke-linejoin="round"/>
<path d="M16.9502 20.6562H39.147" stroke="#FFDE52" stroke-width="2" stroke-miterlimit="10" stroke-linecap="round" stroke-linejoin="round"/>
<path d="M48.8358 20.6562C48.8358 23.3322 46.6677 25.5004 43.9916 25.5004C41.3156 25.5004 39.1475 23.3322 39.1475 20.6562C39.1475 17.9801 41.3156 15.812 43.9916 15.812C46.6677 15.812 48.8358 17.9801 48.8358 20.6562Z" stroke="#FFDE52" stroke-width="2" stroke-miterlimit="10" stroke-linecap="round" stroke-linejoin="round"/>
<path d="M12.1059 25.5004C14.7813 25.5004 16.9501 23.3315 16.9501 20.6562C16.9501 17.9808 14.7813 15.812 12.1059 15.812C9.43053 15.812 7.26172 17.9808 7.26172 20.6562C7.26172 23.3315 9.43053 25.5004 12.1059 25.5004Z" stroke="#FFDE52" stroke-width="2" stroke-miterlimit="10" stroke-linecap="round" stroke-linejoin="round"/>
<path d="M24.9253 4.41431H19.9826C19.6339 4.41431 19.1639 4.50528 18.6332 4.65311C16.2831 5.31643 14.2439 6.753 12.8414 8.6937L11.9999 9.85737C11.8749 10.0317 11.9999 10.2781 12.216 10.2781H37.2404C38.1653 10.2781 38.4913 9.0917 37.6877 8.64822L30.8194 4.84642C30.3077 4.56213 29.7278 4.41431 29.1403 4.41431H24.9253Z" stroke="#FFDE52" stroke-width="2" stroke-miterlimit="10" stroke-linecap="round" stroke-linejoin="round"/>
<path d="M24.9258 4.41431V10.2743" stroke="#FFDE52" stroke-width="2" stroke-miterlimit="10" stroke-linecap="round" stroke-linejoin="round"/>
<path d="M24.9258 13.6628V20.6562" stroke="#FFDE52" stroke-width="2" stroke-miterlimit="10" stroke-linecap="round" stroke-linejoin="round"/>
<path d="M57.4705 16.6611H52.3496V13.2876H57.4553" stroke="#FFDE52" stroke-width="2" stroke-miterlimit="10" stroke-linecap="round" stroke-linejoin="round"/>
</svg>
