<svg width="25" height="36" viewBox="0 0 25 36" fill="none" xmlns="http://www.w3.org/2000/svg">
<g clip-path="url(#clip0_34_381)">
<path d="M18.1887 12.3591L18.1888 12.3601C18.1956 15.5147 15.67 18.1278 12.5287 18.1385L12.5275 18.1385C9.35132 18.1456 6.80851 15.5546 6.80162 12.3645C6.79473 9.19861 9.31163 6.58191 12.4623 6.57448L18.1887 12.3591ZM18.1887 12.3591C18.1784 9.15633 15.6487 6.56441 12.4628 6.57448L18.1887 12.3591ZM13.7934 1.85688L13.7934 1.85689L13.7971 1.85732C15.57 2.06185 17.2055 2.64033 18.6859 3.62508L18.6863 3.62536C21.4048 5.4317 23.089 7.94344 23.7696 11.1876L23.7698 11.1887C23.9757 12.1644 24.0516 13.1406 23.9643 14.1108C23.8939 14.8865 23.6931 15.659 23.4249 16.4588L23.4241 16.4613C22.891 18.0653 22.1612 19.5958 21.339 21.1187L21.3383 21.1199C19.8607 23.8661 18.1525 26.4763 16.3424 29.0474C15.1099 30.7965 13.8329 32.5115 12.5096 34.1874C9.6238 30.5184 6.92618 26.732 4.56468 22.7153C3.54548 20.9755 2.62291 19.2144 1.90462 17.3686C1.52341 16.3866 1.22148 15.4242 1.07338 14.4397L1.07298 14.4371C0.977739 13.8153 0.984287 13.1666 1.04353 12.4778C1.18981 10.8019 1.64746 9.23771 2.45698 7.79947L2.45775 7.79809C4.1296 4.81679 6.58339 2.9342 9.84328 2.09806L9.84437 2.09778C10.485 1.93267 11.1466 1.83887 11.8273 1.8011L11.8273 1.80118L11.8396 1.80034C11.905 1.7959 11.9615 1.78705 12.0029 1.7793H12.0483H12.1987H12.3491H12.4995H12.5018H12.5042H12.5065H12.5089H12.5112H12.5136H12.5159H12.5183H12.5206H12.523H12.5253H12.5277H12.53H12.5324H12.5347H12.5371H12.5394H12.5418H12.5441H12.5465H12.5488H12.5512H12.5535H12.5559H12.5582H12.5606H12.5629H12.5653H12.5676H12.57H12.5723H12.5747H12.577H12.5794H12.5817H12.5841H12.5864H12.5888H12.5911H12.5935H12.5958H12.5982H12.6005H12.6029H12.6052H12.6076H12.6099H12.6123H12.6146H12.617H12.6193H12.6217H12.624H12.6264H12.6287H12.6311H12.6334H12.6358H12.6381H12.6405H12.6428H12.6452H12.6475H12.6499H12.6522H12.6546H12.6569H12.6593H12.6616H12.664H12.6663H12.6687H12.671H12.6734H12.6757H12.6781H12.6804H12.6828H12.6851H12.6875H12.6898H12.6922H12.6945H12.6969H12.6992H12.7016H12.7039H12.7063H12.7086H12.711H12.7133H12.7157H12.718H12.7204H12.7227H12.7251H12.7274H12.7298H12.7321H12.7345H12.7368H12.7392H12.7415H12.7439H12.7462H12.7486H12.7509H12.7533H12.7556H12.758H12.7603H12.7627H12.765H12.7674H12.7697H12.7721H12.7744H12.7768H12.7791H12.7815H12.7838H12.7862H12.7885H12.7909H12.7932H12.7956H12.7979H12.8003H12.8026H12.805H12.8073H12.8097H12.812H12.8144H12.8167H12.8191H12.8214H12.8238H12.8261H12.8285H12.8308H12.8332H12.8355H12.8379H12.8402H12.8426H12.8449H12.8473H12.8496H12.852H12.8543H12.8567H12.859H12.8614H12.8637H12.8661H12.8684H12.8708H12.8731H12.8755H12.8778H12.8802H12.8825H12.8849H12.8872H12.8896H12.8919H12.8943H12.8966H12.899H12.9013H12.9037H12.906H12.9084H12.9107H12.9131H12.9154H12.9178H12.9201H12.9225H12.9248H12.9271H12.9295H12.9318H12.9342H12.9365H12.9389H12.9412H12.9436H12.9459H12.9483H12.9506H12.953H12.9553H12.9577H12.96H12.9624H12.9647H12.9671H12.9694H12.9718H12.9741H12.9765H12.9788H12.9812H12.9835H12.9859H12.9882H12.9906H12.9929H12.9953H12.9976H13H13.0023H13.0047H13.007H13.0094H13.0117H13.0141H13.0164H13.0188H13.0211H13.0235H13.0258H13.0282H13.0305H13.0329H13.0352H13.0376H13.0399H13.0423H13.0446H13.047H13.0476C13.1559 1.79078 13.2537 1.80043 13.3477 1.8097C13.4971 1.82444 13.6368 1.83822 13.7934 1.85688Z" stroke="#FFDE52" stroke-width="2"/>
</g>
<defs>
<clipPath id="clip0_34_381">
<rect width="25" height="35" fill="white" transform="translate(0 0.779297)"/>
</clipPath>
</defs>
</svg>
