<svg width="12" height="12" viewBox="0 0 12 12" fill="none" xmlns="http://www.w3.org/2000/svg">
<g clip-path="url(#clip0_34_455)">
<path d="M11.8908 2.56055L8.55469 5.87514L11.8908 9.18972C11.9511 9.06368 11.9877 8.92433 11.9877 8.77553V2.97474C11.9877 2.82592 11.9511 2.6866 11.8908 2.56055Z" fill="#FFDE52"/>
<path d="M11.0206 2.00781H1.95424C1.80541 2.00781 1.66609 2.0444 1.54004 2.10471L5.80389 6.34708C6.1809 6.72408 6.79398 6.72408 7.17099 6.34708L11.4348 2.10471C11.3088 2.0444 11.1695 2.00781 11.0206 2.00781Z" fill="#FFDE52"/>
<path d="M1.0842 2.56055C1.02389 2.6866 0.987305 2.82592 0.987305 2.97474V8.77553C0.987305 8.92435 1.02389 9.0637 1.0842 9.18972L4.42027 5.87514L1.0842 2.56055Z" fill="#FFDE52"/>
<path d="M8.09877 6.33057L7.62669 6.80264C6.99851 7.43082 5.97635 7.43082 5.34817 6.80264L4.87611 6.33057L1.54004 9.64515C1.66609 9.70546 1.80541 9.74205 1.95424 9.74205H11.0206C11.1695 9.74205 11.3088 9.70546 11.4348 9.64515L8.09877 6.33057Z" fill="#FFDE52"/>
</g>
<defs>
<clipPath id="clip0_34_455">
<rect width="11" height="11" fill="white" transform="translate(0.987305 0.375)"/>
</clipPath>
</defs>
</svg>
