<svg width="19" height="20" viewBox="0 0 19 20" fill="none" xmlns="http://www.w3.org/2000/svg">
<g clip-path="url(#clip0_101_3334)">
<path d="M17.4754 12.5382C16.3122 12.5382 15.17 12.3563 14.0877 11.9986C13.5573 11.8177 12.9053 11.9837 12.5816 12.3161L10.4453 13.9288C7.96768 12.6063 6.44154 11.0807 5.13708 8.62169L6.70235 6.541C7.10902 6.13487 7.25488 5.54162 7.08012 4.98498C6.7209 3.89693 6.53842 2.7553 6.53842 1.59155C6.53847 0.750845 5.85452 0.0668945 5.01387 0.0668945H1.5246C0.683951 0.0668945 0 0.750845 0 1.5915C0 11.2276 7.83938 19.0669 17.4754 19.0669C18.3161 19.0669 19 18.3829 19 17.5423V14.0628C19 13.2222 18.316 12.5382 17.4754 12.5382Z" fill="#FFDE52"/>
</g>
<defs>
<clipPath id="clip0_101_3334">
<rect width="19" height="19" fill="white" transform="translate(0 0.0668945)"/>
</clipPath>
</defs>
</svg>
