<svg width="11" height="16" viewBox="0 0 11 16" fill="none" xmlns="http://www.w3.org/2000/svg">
<path d="M5.65992 0.540405C5.76519 0.552506 5.87158 0.562187 5.97685 0.575498C6.7283 0.667464 7.42712 0.928841 8.05986 1.37536C9.20999 2.18612 9.92672 3.32238 10.2134 4.77206C10.3008 5.21132 10.3344 5.65784 10.2963 6.10678C10.2649 6.47343 10.1765 6.82799 10.0667 7.17528C9.84833 7.87228 9.55156 8.53057 9.22455 9.17312C8.6366 10.3324 7.95907 11.4299 7.24681 12.5033C6.67455 13.3648 6.07764 14.2071 5.45498 15.0263C5.44826 15.036 5.44042 15.0444 5.43034 15.0565C5.42027 15.0469 5.41019 15.0384 5.40235 15.0287C4.1615 13.3806 2.99681 11.6731 1.98555 9.84835C1.58127 9.11625 1.20946 8.36479 0.918291 7.57097C0.763745 7.14866 0.634958 6.71787 0.571124 6.26772C0.527448 5.9652 0.531927 5.66026 0.556565 5.35653C0.618159 4.60749 0.811901 3.9008 1.15795 3.24857C1.86348 1.91385 2.91058 1.06074 4.28917 0.685615C4.56803 0.60938 4.85248 0.567027 5.14029 0.550086C5.15709 0.548876 5.17277 0.544036 5.18957 0.540405C5.34635 0.540405 5.50314 0.540405 5.65992 0.540405ZM7.25801 5.34443C7.25465 4.2372 6.43377 3.35505 5.41131 3.35868C4.4034 3.3611 3.58588 4.25172 3.58812 5.34443C3.59036 6.44439 4.4146 7.32775 5.43482 7.32533C6.44049 7.3217 7.26025 6.43108 7.25801 5.34443Z" fill="#5C657E"/>
</svg>
